<svg width="65" height="65" viewBox="0 0 65 65" fill="none" xmlns="http://www.w3.org/2000/svg">
<rect x="0.0825195" y="0.349609" width="64" height="64" rx="32" fill="#81B29A"/>
<path d="M26.27 41.3496V39.2871L32.1646 33.498C32.9146 32.7637 33.4849 32.1582 33.8755 31.6816C34.2661 31.1973 34.5356 30.7637 34.6841 30.3809C34.8325 29.998 34.9067 29.5996 34.9067 29.1855V29.1504C34.9067 28.6426 34.7896 28.1934 34.5552 27.8027C34.3208 27.4121 33.9927 27.1074 33.5708 26.8887C33.1567 26.6621 32.6724 26.5488 32.1177 26.5488C31.5005 26.5488 30.9536 26.6777 30.4771 26.9355C30.0005 27.1855 29.6255 27.5293 29.3521 27.9668C29.0864 28.3965 28.9497 28.8887 28.9419 29.4434L28.9302 29.5137H26.1177L26.106 29.4434C26.106 28.4043 26.3677 27.4863 26.8911 26.6895C27.4224 25.8848 28.1411 25.2559 29.0474 24.8027C29.9536 24.3496 30.981 24.123 32.1294 24.123C33.2544 24.123 34.2466 24.334 35.106 24.7559C35.9731 25.1699 36.6489 25.7441 37.1333 26.4785C37.6255 27.2051 37.8716 28.0332 37.8716 28.9629V28.998C37.8716 29.6543 37.7505 30.2754 37.5083 30.8613C37.2739 31.4395 36.8716 32.0723 36.3013 32.7598C35.731 33.4395 34.9458 34.2637 33.9458 35.2324L29.2466 39.709L30.2778 37.8457V39.709L29.2583 38.877H38.1294V41.3496H26.27Z" fill="white"/>
</svg>
