<svg width="65" height="65" viewBox="0 0 65 65" fill="none" xmlns="http://www.w3.org/2000/svg">
<rect x="0.749512" y="0.349609" width="64" height="64" rx="32" fill="#F2CC8F"/>
<path d="M32.7026 41.6426C31.4683 41.6426 30.3901 41.4395 29.4683 41.0332C28.5464 40.6191 27.8159 40.0488 27.2769 39.3223C26.7378 38.5957 26.4292 37.7598 26.3511 36.8145L26.3394 36.6738H29.2222L29.2339 36.791C29.2964 37.252 29.4722 37.6621 29.7612 38.0215C30.0581 38.3809 30.4565 38.666 30.9565 38.877C31.4565 39.0801 32.0386 39.1816 32.7026 39.1816C33.3589 39.1816 33.9292 39.0723 34.4136 38.8535C34.9058 38.627 35.2847 38.3184 35.5503 37.9277C35.8237 37.5293 35.9604 37.0723 35.9604 36.5566V36.5332C35.9604 35.6426 35.6519 34.959 35.0347 34.4824C34.4175 34.0059 33.5698 33.7676 32.4917 33.7676H30.4878V31.5176H32.4214C33.0464 31.5176 33.5894 31.4082 34.0503 31.1895C34.519 30.9707 34.8823 30.6738 35.1401 30.2988C35.3979 29.916 35.5269 29.4785 35.5269 28.9863V28.9629C35.5269 28.4473 35.4136 28.0098 35.187 27.6504C34.9683 27.291 34.644 27.0176 34.2144 26.8301C33.7925 26.6348 33.2808 26.5371 32.6792 26.5371C32.0854 26.5371 31.5581 26.6348 31.0972 26.8301C30.644 27.0254 30.2808 27.3027 30.0073 27.6621C29.7339 28.0215 29.5698 28.4473 29.5151 28.9395L29.5034 29.0449H26.7026L26.7144 28.916C26.8003 27.9551 27.0972 27.1191 27.605 26.4082C28.1206 25.6895 28.8081 25.1348 29.6675 24.7441C30.5347 24.3457 31.5386 24.1465 32.6792 24.1465C33.8433 24.1465 34.855 24.334 35.7144 24.709C36.5737 25.0762 37.2378 25.5918 37.7065 26.2559C38.1831 26.9121 38.4214 27.6816 38.4214 28.5645V28.5879C38.4214 29.2832 38.2651 29.9004 37.9526 30.4395C37.6479 30.9707 37.2261 31.4121 36.687 31.7637C36.1558 32.1152 35.5503 32.3613 34.8706 32.502V32.5605C36.1206 32.6777 37.1245 33.0918 37.8823 33.8027C38.6401 34.5059 39.019 35.4434 39.019 36.6152V36.6387C39.019 37.6152 38.7534 38.4824 38.2222 39.2402C37.6909 39.998 36.9487 40.5879 35.9956 41.0098C35.0503 41.4316 33.9526 41.6426 32.7026 41.6426Z" fill="white"/>
</svg>
