<svg width="190" height="72" viewBox="0 0 190 72" fill="none" xmlns="http://www.w3.org/2000/svg">
<path d="M188.945 63.1617C188.945 66.9454 186.526 70.0102 183.534 70.0102H6.47323C3.48291 70.0102 1.05566 66.9454 1.05566 63.1617V8.54692C1.05566 4.76503 3.48291 1.68945 6.47323 1.68945H183.533C186.526 1.68945 188.943 4.76503 188.943 8.54692L188.945 63.1617Z" fill="white"/>
<path d="M182.963 1.77183C186.221 1.77183 188.872 5.11549 188.872 9.22462V62.4746C188.872 66.5837 186.221 69.9274 182.963 69.9274H7.03704C3.77889 69.9274 1.12768 66.5837 1.12768 62.4746V9.22462C1.12768 5.11549 3.77889 1.77183 7.03704 1.77183H182.963ZM182.963 0.349615H7.03704C3.16843 0.349615 0 4.34559 0 9.22462V62.4746C0 67.3536 3.16843 71.3496 7.03704 71.3496H182.963C186.832 71.3496 190 67.3536 190 62.4746V9.22462C190 4.34559 186.832 0.349615 182.963 0.349615Z" fill="#A6A6A6"/>
<path d="M42.3433 34.9867C42.3025 30.7968 46.0574 28.7584 46.2291 28.6635C44.1025 25.7996 40.8064 25.4083 39.6481 25.3771C36.8797 25.108 34.1944 26.9072 32.7842 26.9072C31.3458 26.9072 29.1742 25.4031 26.8337 25.4473C23.8218 25.4902 21.0042 27.1009 19.4588 29.6021C16.2697 34.702 18.6482 42.1965 21.7037 46.3188C23.2321 48.3377 25.0181 50.5919 27.3558 50.5126C29.6428 50.4255 30.4971 49.1658 33.2571 49.1658C35.9917 49.1658 36.7939 50.5126 39.178 50.4619C41.6325 50.4255 43.1779 48.4339 44.6528 46.3968C46.4191 44.0828 47.1285 41.8039 47.1566 41.6869C47.0989 41.6687 42.3897 40.0086 42.3433 34.9867Z" fill="#212429"/>
<path d="M37.8396 22.6653C39.0697 21.2444 39.9113 19.3113 39.6777 17.3496C37.8973 17.4224 35.6708 18.4871 34.3886 19.8768C33.2542 21.1014 32.2409 23.1086 32.5027 24.9962C34.5026 25.134 36.556 24.0641 37.8396 22.6653Z" fill="#212429"/>
<path d="M68.9755 22.2799C68.9755 23.81 68.4787 24.9618 67.4865 25.7353C66.5675 26.449 65.2614 26.8065 63.5697 26.8065C62.7309 26.8065 62.0131 26.7727 61.4121 26.7051V18.3448C62.196 18.2278 63.0405 18.168 63.9525 18.168C65.564 18.168 66.7786 18.4917 67.5977 19.1391C68.5153 19.871 68.9755 20.9175 68.9755 22.2799ZM67.4203 22.3176C67.4203 21.3257 67.136 20.5652 66.5675 20.0348C65.9989 19.5057 65.1685 19.2405 64.0749 19.2405C63.6105 19.2405 63.215 19.2691 62.8871 19.3289V25.6846C63.0686 25.7106 63.4008 25.7223 63.8835 25.7223C65.0123 25.7223 65.8835 25.4324 66.4971 24.8526C67.1107 24.2728 67.4203 23.4278 67.4203 22.3176Z" fill="#212429"/>
<path d="M77.2216 23.6167C77.2216 24.5592 76.9303 25.3314 76.3476 25.9372C75.7368 26.5599 74.9276 26.8706 73.917 26.8706C72.9431 26.8706 72.1676 26.5729 71.5892 25.9749C71.0122 25.3782 70.7236 24.6255 70.7236 23.7181C70.7236 22.7691 71.0206 21.9904 71.6173 21.3859C72.2141 20.7814 73.0163 20.4785 74.0268 20.4785C75.0007 20.4785 75.7833 20.7762 76.3758 21.3729C76.9387 21.9527 77.2216 22.7015 77.2216 23.6167ZM75.6918 23.6609C75.6918 23.0954 75.5595 22.6105 75.2963 22.2062C74.9867 21.7174 74.5462 21.473 73.9733 21.473C73.3808 21.473 72.9304 21.7174 72.6208 22.2062C72.3562 22.6105 72.2253 23.1032 72.2253 23.6856C72.2253 24.2511 72.3576 24.736 72.6208 25.1403C72.9403 25.6291 73.385 25.8735 73.9593 25.8735C74.5222 25.8735 74.9642 25.6252 75.2822 25.1273C75.5553 24.7152 75.6918 24.2264 75.6918 23.6609Z" fill="#212429"/>
<path d="M88.2781 20.6035L86.2022 26.7317H84.8511L83.9912 24.0706C83.773 23.4063 83.5957 22.7459 83.4577 22.0907H83.431C83.3029 22.7641 83.1256 23.4232 82.8976 24.0706L81.9842 26.7317H80.6176L78.6655 20.6035H80.1813L80.9314 23.5168C81.113 24.2058 81.2622 24.8623 81.3818 25.4837H81.4086C81.5183 24.9715 81.6999 24.3189 81.956 23.5298L82.8976 20.6048H84.0995L85.0017 23.4674C85.2198 24.1655 85.3971 24.8376 85.5337 25.485H85.5745C85.6744 24.8545 85.825 24.1824 86.0249 23.4674L86.8299 20.6048H88.2781V20.6035Z" fill="#212429"/>
<path d="M95.9248 26.7315H94.4498V23.2215C94.4498 22.1399 94.0051 21.5991 93.1128 21.5991C92.6751 21.5991 92.3218 21.7473 92.0474 22.045C91.7757 22.3427 91.6378 22.6937 91.6378 23.0954V26.7302H90.1628V22.3544C90.1628 21.8162 90.1446 21.2325 90.1094 20.6007H91.4056L91.4746 21.5588H91.5154C91.6871 21.2611 91.9432 21.0154 92.2796 20.8191C92.6793 20.5903 93.1268 20.4746 93.6166 20.4746C94.2359 20.4746 94.751 20.6592 95.1605 21.0297C95.67 21.4834 95.9248 22.1607 95.9248 23.0603V26.7315Z" fill="#212429"/>
<path d="M99.9921 26.7311H98.5186V17.791H99.9921V26.7311Z" fill="#212429"/>
<path d="M108.676 23.6167C108.676 24.5592 108.384 25.3314 107.802 25.9372C107.191 26.5599 106.38 26.8706 105.371 26.8706C104.396 26.8706 103.62 26.5729 103.043 25.9749C102.466 25.3782 102.178 24.6255 102.178 23.7181C102.178 22.7691 102.475 21.9904 103.071 21.3859C103.668 20.7814 104.47 20.4785 105.48 20.4785C106.455 20.4785 107.236 20.7762 107.83 21.3729C108.393 21.9527 108.676 22.7015 108.676 23.6167ZM107.144 23.6609C107.144 23.0954 107.012 22.6105 106.749 22.2062C106.441 21.7174 105.999 21.473 105.427 21.473C104.834 21.473 104.383 21.7174 104.075 22.2062C103.81 22.6105 103.679 23.1032 103.679 23.6856C103.679 24.2511 103.812 24.736 104.075 25.1403C104.394 25.6291 104.839 25.8735 105.413 25.8735C105.976 25.8735 106.417 25.6252 106.735 25.1273C107.009 24.7152 107.144 24.2264 107.144 23.6609Z" fill="#212429"/>
<path d="M115.814 26.7315H114.489L114.38 26.0256H114.339C113.886 26.5885 113.24 26.8706 112.401 26.8706C111.775 26.8706 111.268 26.6847 110.887 26.3155C110.54 25.9801 110.367 25.5628 110.367 25.0675C110.367 24.3187 110.705 23.748 111.385 23.3528C112.063 22.9576 113.017 22.7639 114.246 22.773V22.6586C114.246 21.8513 113.787 21.4483 112.868 21.4483C112.214 21.4483 111.637 21.6004 111.138 21.902L110.839 21.0076C111.455 20.6553 112.217 20.4785 113.114 20.4785C114.848 20.4785 115.718 21.3235 115.718 23.0135V25.2703C115.718 25.8826 115.751 26.3701 115.814 26.7315ZM114.283 24.6255V23.6804C112.656 23.6544 111.842 24.0665 111.842 24.9154C111.842 25.2352 111.935 25.4744 112.125 25.6343C112.315 25.7942 112.557 25.8735 112.846 25.8735C113.169 25.8735 113.472 25.7786 113.748 25.5901C114.025 25.4003 114.195 25.1598 114.259 24.8647C114.274 24.7984 114.283 24.7178 114.283 24.6255Z" fill="#212429"/>
<path d="M124.195 26.7311H122.886L122.817 25.747H122.776C122.358 26.4958 121.646 26.8702 120.646 26.8702C119.846 26.8702 119.181 26.5803 118.653 26.0005C118.125 25.4207 117.862 24.668 117.862 23.7437C117.862 22.7518 118.148 21.9484 118.722 21.3348C119.278 20.7628 119.959 20.4768 120.77 20.4768C121.66 20.4768 122.284 20.7537 122.639 21.3088H122.667V17.791H124.143V25.0801C124.143 25.6768 124.16 26.2267 124.195 26.7311ZM122.667 24.1467V23.1249C122.667 22.9481 122.653 22.8051 122.626 22.6959C122.543 22.3683 122.364 22.0927 122.092 21.8704C121.818 21.6481 121.487 21.5363 121.106 21.5363C120.556 21.5363 120.125 21.7378 119.808 22.1421C119.494 22.5464 119.335 23.0625 119.335 23.693C119.335 24.2988 119.486 24.7902 119.789 25.1685C120.108 25.5715 120.539 25.773 121.078 25.773C121.562 25.773 121.949 25.6053 122.243 25.2686C122.527 24.9579 122.667 24.5835 122.667 24.1467Z" fill="#212429"/>
<path d="M136.81 23.6167C136.81 24.5592 136.518 25.3314 135.936 25.9372C135.325 26.5599 134.517 26.8706 133.505 26.8706C132.532 26.8706 131.757 26.5729 131.177 25.9749C130.6 25.3782 130.312 24.6255 130.312 23.7181C130.312 22.7691 130.608 21.9904 131.205 21.3859C131.802 20.7814 132.604 20.4785 133.616 20.4785C134.589 20.4785 135.373 20.7762 135.964 21.3729C136.527 21.9527 136.81 22.7015 136.81 23.6167ZM135.281 23.6609C135.281 23.0954 135.149 22.6105 134.886 22.2062C134.575 21.7174 134.135 21.473 133.561 21.473C132.97 21.473 132.52 21.7174 132.209 22.2062C131.944 22.6105 131.813 23.1032 131.813 23.6856C131.813 24.2511 131.946 24.736 132.209 25.1403C132.528 25.6291 132.973 25.8735 133.547 25.8735C134.11 25.8735 134.553 25.6252 134.872 25.1273C135.143 24.7152 135.281 24.2264 135.281 23.6609Z" fill="#212429"/>
<path d="M144.74 26.7315H143.267V23.2215C143.267 22.1399 142.822 21.5991 141.928 21.5991C141.491 21.5991 141.137 21.7473 140.864 22.045C140.591 22.3427 140.455 22.6937 140.455 23.0954V26.7302H138.978V22.3544C138.978 21.8162 138.961 21.2325 138.926 20.6007H140.221L140.29 21.5588H140.331C140.504 21.2611 140.76 21.0154 141.095 20.8191C141.496 20.5903 141.942 20.4746 142.434 20.4746C143.051 20.4746 143.566 20.6592 143.976 21.0297C144.487 21.4834 144.74 22.1607 144.74 23.0603V26.7315Z" fill="#212429"/>
<path d="M154.667 21.6229H153.043V24.5999C153.043 25.3565 153.331 25.7348 153.903 25.7348C154.167 25.7348 154.387 25.714 154.56 25.6711L154.598 26.7046C154.307 26.806 153.924 26.8567 153.453 26.8567C152.87 26.8567 152.417 26.6929 152.089 26.3653C151.759 26.0377 151.596 25.4865 151.596 24.713V21.6229H150.626V20.6024H151.596V19.4792L153.042 19.0762V20.6011H154.666V21.6229H154.667Z" fill="#212429"/>
<path d="M162.475 26.7311H160.999V23.2471C160.999 22.1486 160.554 21.5987 159.663 21.5987C158.979 21.5987 158.512 21.9172 158.256 22.5542C158.212 22.6881 158.187 22.8519 158.187 23.0443V26.7298H156.713V17.791H158.187V21.4843H158.215C158.68 20.8122 159.345 20.4768 160.208 20.4768C160.819 20.4768 161.324 20.6614 161.725 21.0319C162.225 21.4934 162.475 22.1798 162.475 23.0872V26.7311Z" fill="#212429"/>
<path d="M170.53 23.3775C170.53 23.6219 170.51 23.8273 170.475 23.995H166.051C166.071 24.6008 166.282 25.0623 166.692 25.3821C167.066 25.6681 167.549 25.8111 168.14 25.8111C168.794 25.8111 169.391 25.7149 169.929 25.5212L170.16 26.4676C169.531 26.7198 168.79 26.8459 167.933 26.8459C166.906 26.8459 166.096 26.5664 165.511 26.0074C164.923 25.4484 164.631 24.6983 164.631 23.7571C164.631 22.8328 164.903 22.0632 165.45 21.4496C166.022 20.7944 166.795 20.4668 167.77 20.4668C168.724 20.4668 169.449 20.7944 169.939 21.4496C170.334 21.9696 170.53 22.6131 170.53 23.3775ZM169.122 23.0252C169.134 22.6209 169.037 22.2725 168.837 21.9787C168.581 21.6004 168.191 21.4106 167.663 21.4106C167.182 21.4106 166.789 21.5952 166.489 21.9657C166.244 22.2608 166.099 22.6131 166.051 23.0252H169.122Z" fill="#212429"/>
<path d="M75.4431 50.2223H72.2469L70.496 45.1406H64.4104L62.7426 50.2223H59.6309L65.6602 32.9219H69.3842L75.4431 50.2223ZM69.9683 43.0086L68.3849 38.4911C68.2175 38.0296 67.9036 36.9428 67.4406 35.232H67.3843C67.1999 35.9678 66.9029 37.0546 66.4948 38.4911L64.9396 43.0086H69.9683Z" fill="#212429"/>
<path d="M90.9487 43.8303C90.9487 45.9519 90.3281 47.6289 89.0867 48.86C87.9749 49.9559 86.5942 50.5032 84.9461 50.5032C83.1672 50.5032 81.8892 49.913 81.1109 48.7326H81.0546V55.3041H78.0541V41.853C78.0541 40.5192 78.0161 39.1503 77.9429 37.7463H80.5818L80.7492 39.7236H80.8055C81.8062 38.2338 83.3248 37.4902 85.3627 37.4902C86.9559 37.4902 88.2859 38.0713 89.3499 39.2348C90.4167 40.3996 90.9487 41.931 90.9487 43.8303ZM87.8918 43.9317C87.8918 42.7175 87.5963 41.7165 87.0024 40.9287C86.3535 40.1071 85.4823 39.6963 84.3902 39.6963C83.6499 39.6963 82.9772 39.9251 82.3762 40.3762C81.7738 40.8312 81.3798 41.4253 81.1954 42.1611C81.1025 42.5043 81.0561 42.7851 81.0561 43.0061V45.0861C81.0561 45.9935 81.3572 46.7592 81.9596 47.3845C82.562 48.0098 83.3445 48.3218 84.3072 48.3218C85.4373 48.3218 86.3169 47.9188 86.9461 47.1154C87.5766 46.3107 87.8918 45.2499 87.8918 43.9317Z" fill="#212429"/>
<path d="M106.482 43.8303C106.482 45.9519 105.861 47.6289 104.619 48.86C103.508 49.9559 102.127 50.5032 100.479 50.5032C98.7004 50.5032 97.4225 49.913 96.6456 48.7326H96.5893V55.3041H93.5887V41.853C93.5887 40.5192 93.5507 39.1503 93.4775 37.7463H96.1164L96.2839 39.7236H96.3402C97.3395 38.2338 98.8581 37.4902 100.897 37.4902C102.489 37.4902 103.819 38.0713 104.886 39.2348C105.949 40.3996 106.482 41.931 106.482 43.8303ZM103.425 43.9317C103.425 42.7175 103.128 41.7165 102.534 40.9287C101.885 40.1071 101.017 39.6963 99.9235 39.6963C99.1818 39.6963 98.5104 39.9251 97.9081 40.3762C97.3057 40.8312 96.913 41.4253 96.7286 42.1611C96.6372 42.5043 96.5893 42.7851 96.5893 43.0061V45.0861C96.5893 45.9935 96.8905 46.7592 97.4901 47.3845C98.0924 48.0085 98.875 48.3218 99.8404 48.3218C100.971 48.3218 101.85 47.9188 102.479 47.1154C103.11 46.3107 103.425 45.2499 103.425 43.9317Z" fill="#212429"/>
<path d="M123.85 45.3703C123.85 46.8419 123.296 48.0392 122.186 48.9635C120.966 49.9736 119.267 50.478 117.084 50.478C115.069 50.478 113.453 50.1192 112.23 49.4003L112.925 47.0902C114.243 47.826 115.688 48.1952 117.263 48.1952C118.393 48.1952 119.273 47.9586 119.905 47.488C120.534 47.0174 120.848 46.3856 120.848 45.5978C120.848 44.8958 120.589 44.3043 120.069 43.8246C119.553 43.3449 118.69 42.899 117.485 42.4869C114.206 41.3572 112.568 39.7023 112.568 37.5261C112.568 36.1039 113.142 34.9378 114.292 34.0304C115.437 33.1217 116.966 32.668 118.877 32.668C120.582 32.668 121.997 32.9423 123.128 33.4896L122.377 35.749C121.322 35.2186 120.128 34.9534 118.793 34.9534C117.737 34.9534 116.912 35.1939 116.321 35.6723C115.822 36.1 115.571 36.6213 115.571 37.2388C115.571 37.9226 115.857 38.4881 116.431 38.9327C116.931 39.3435 117.839 39.7881 119.156 40.2678C120.767 40.8671 121.951 41.5678 122.712 42.3712C123.471 43.172 123.85 44.1743 123.85 45.3703Z" fill="#212429"/>
<path d="M133.77 39.827H130.463V45.8837C130.463 47.4242 131.046 48.1938 132.214 48.1938C132.75 48.1938 133.195 48.1509 133.547 48.0651L133.63 50.1698C133.038 50.3739 132.26 50.4766 131.296 50.4766C130.111 50.4766 129.185 50.1425 128.516 49.4756C127.851 48.8074 127.516 47.6868 127.516 46.1125V39.8244H125.545V37.7444H127.516V35.4603L130.463 34.6387V37.7444H133.77V39.827Z" fill="#212429"/>
<path d="M148.693 43.8817C148.693 45.7992 148.099 47.3735 146.914 48.6046C145.671 49.8721 144.022 50.5039 141.966 50.5039C139.984 50.5039 138.406 49.8968 137.23 48.6826C136.053 47.4684 135.465 45.9357 135.465 44.0884C135.465 42.1553 136.07 40.5719 137.285 39.3408C138.496 38.1084 140.132 37.4922 142.188 37.4922C144.17 37.4922 145.764 38.0993 146.968 39.3148C148.119 40.4939 148.693 42.0162 148.693 43.8817ZM145.58 43.9714C145.58 42.8209 145.314 41.8342 144.775 41.0113C144.146 40.0155 143.246 39.5189 142.081 39.5189C140.875 39.5189 139.959 40.0168 139.33 41.0113C138.791 41.8355 138.525 42.8378 138.525 44.0234C138.525 45.1739 138.791 46.1606 139.33 46.9822C139.978 47.978 140.885 48.4746 142.054 48.4746C143.2 48.4746 144.099 47.9676 144.748 46.9562C145.301 46.1177 145.58 45.1206 145.58 43.9714Z" fill="#212429"/>
<path d="M158.446 40.1838C158.149 40.1331 157.833 40.1071 157.501 40.1071C156.445 40.1071 155.629 40.475 155.054 41.2121C154.555 41.8621 154.304 42.6837 154.304 43.6756V50.2211H151.305L151.333 41.6749C151.333 40.2371 151.295 38.928 151.221 37.7476H153.834L153.944 40.1344H154.027C154.344 39.3141 154.843 38.6537 155.527 38.1584C156.196 37.7125 156.918 37.4902 157.696 37.4902C157.973 37.4902 158.224 37.5084 158.446 37.5409V40.1838Z" fill="#212429"/>
<path d="M171.866 43.3935C171.866 43.8901 171.831 44.3087 171.756 44.6506H162.755C162.79 45.883 163.225 46.8255 164.061 47.4755C164.819 48.0566 165.8 48.3478 167.005 48.3478C168.338 48.3478 169.554 48.1515 170.647 47.7576L171.117 49.6816C169.839 50.1964 168.331 50.4525 166.59 50.4525C164.496 50.4525 162.852 49.8831 161.655 48.7456C160.462 47.6081 159.864 46.0806 159.864 44.1644C159.864 42.2833 160.42 40.7168 161.533 39.4675C162.698 38.1337 164.273 37.4668 166.255 37.4668C168.201 37.4668 169.675 38.1337 170.675 39.4675C171.468 40.527 171.866 41.8374 171.866 43.3935ZM169.005 42.6746C169.025 41.853 168.829 41.1432 168.422 40.5439C167.903 39.773 167.105 39.3882 166.031 39.3882C165.05 39.3882 164.252 39.7639 163.643 40.5179C163.143 41.1172 162.846 41.8361 162.755 42.6733H169.005V42.6746Z" fill="#212429"/>
</svg>
