<svg width="21" height="25" viewBox="0 0 21 25" fill="none" xmlns="http://www.w3.org/2000/svg">
<path d="M17.2871 13.7049C17.2592 10.677 19.83 9.20389 19.9475 9.1353C18.4916 7.06562 16.2349 6.78284 15.4419 6.76029C13.5465 6.56582 11.708 7.86606 10.7425 7.86606C9.75775 7.86606 8.27096 6.77908 6.66853 6.81102C4.60649 6.84203 2.67742 8.00604 1.61942 9.81361C-0.564039 13.4992 1.0644 18.9153 3.15631 21.8944C4.20275 23.3534 5.42553 24.9825 7.02602 24.9252C8.59182 24.8622 9.17671 23.9519 11.0663 23.9519C12.9385 23.9519 13.4877 24.9252 15.12 24.8886C16.8005 24.8622 17.8585 23.423 18.8683 21.9508C20.0776 20.2785 20.5632 18.6316 20.5825 18.547C20.543 18.5339 17.3189 17.3342 17.2871 13.7049Z" fill="white"/>
<path d="M14.2037 4.80053C15.0458 3.77367 15.622 2.37666 15.4621 0.958984C14.2432 1.0116 12.7188 1.78103 11.841 2.78534C11.0644 3.67033 10.3706 5.12089 10.5498 6.48502C11.919 6.58461 13.3249 5.81141 14.2037 4.80053Z" fill="white"/>
</svg>
