<svg width="1441" height="666" viewBox="0 0 1441 666" fill="none" xmlns="http://www.w3.org/2000/svg">
<g clip-path="url(#clip0_586_2414)">
<rect width="1440" height="665" transform="translate(0.0825195 0.349609)" fill="#F5E6D3"/>
<g opacity="0.5">
<path d="M1234.36 383.637C1236.68 321.03 1233.07 334.585 1231.66 292.602C1230.96 271.625 1232.16 250.256 1232.8 234.399C1233.12 226.466 1233.29 219.921 1233.02 215.487C1232.88 213.265 1232.63 211.599 1232.24 210.558C1232.05 210.037 1231.83 209.704 1231.6 209.527C1231.39 209.365 1231.16 209.321 1230.86 209.423C1230.15 209.663 1228.97 210.338 1227.4 211.372C1225.84 212.399 1223.92 213.765 1221.73 215.365C1217.33 218.573 1211.91 222.681 1206.13 226.909C1200.37 231.125 1194.31 235.432 1188.69 238.987C1183.08 242.538 1177.9 245.351 1173.93 246.565C1166.11 248.959 1157.37 254.712 1147.99 261.908C1143.3 265.504 1138.46 269.455 1133.51 273.519C1128.55 277.582 1123.48 281.758 1118.33 285.801L1117.74 286.265L1117.93 285.54C1119.29 280.476 1126.26 256.141 1137.08 226.737C1147.84 197.474 1162.42 163.172 1179.06 137.853C1066.29 129.229 1100.39 136.557 1055.08 137.066L1054.13 137.077L1054.96 136.599C1069.9 127.971 1096.26 107.055 1122.85 87.0666C1136.14 77.0772 1149.48 67.3233 1161.47 59.4642C1173.16 51.8058 1183.58 45.9335 1191.42 43.4024C1172.35 34.1079 1145.74 27.8873 1120.14 23.8884C1094.29 19.8509 1069.49 18.0807 1054.55 17.6888L1053.66 17.6654L1054.43 17.2214C1078.66 3.2314 1139.69 -27.1693 1190.01 -36.8307C1215.19 -41.6662 1245.66 -38.9264 1273.49 -33.5469C1301.31 -28.1705 1326.52 -20.1512 1341.26 -14.3971C1350.77 -13.6592 1381.18 -8.02742 1427.24 8.64327C1456.11 19.0949 1485.36 43.2192 1510.88 71.0664C1536.4 98.9181 1558.21 130.519 1572.18 155.956L1571.77 156.244C1564.85 148.544 1554.83 142.255 1543.23 137.034C1531.64 131.814 1518.49 127.668 1505.3 124.247C1492.11 120.827 1478.9 118.132 1467.19 115.812C1455.85 113.568 1445.92 111.671 1438.79 109.809C1441.55 113.555 1446.05 121.543 1451.52 132.156C1457.3 143.362 1464.18 157.515 1471.28 172.743C1485.47 203.196 1500.55 237.955 1509.46 262.03L1509.78 262.892L1509.07 262.311C1494.26 250.218 1466.55 230.604 1442.79 215.658C1430.91 208.185 1420.03 201.884 1412.23 198.274C1408.33 196.466 1405.23 195.346 1403.17 195.079C1402.14 194.944 1401.42 195.035 1401 195.304C1400.62 195.552 1400.42 195.994 1400.53 196.757C1402.43 209.959 1402.36 264.177 1377.96 355.214L1377.74 356.038L1377.48 355.225C1368.63 327.547 1366.4 322.473 1364.16 319.192C1363.04 317.561 1361.87 316.315 1359.89 312.955C1357.9 309.589 1355.08 304.081 1350.59 293.844C1341.63 273.384 1333.53 258.124 1327.47 247.926C1324.44 242.827 1321.91 238.994 1320.04 236.411C1319.11 235.119 1318.34 234.142 1317.76 233.476C1317.46 233.143 1317.22 232.892 1317.03 232.719C1316.93 232.632 1316.85 232.568 1316.78 232.524C1316.76 232.509 1316.74 232.498 1316.73 232.489C1316.72 232.499 1316.7 232.509 1316.68 232.525C1316.6 232.613 1316.49 232.76 1316.35 232.972C1316.08 233.392 1315.71 234.029 1315.27 234.861C1314.38 236.524 1313.19 238.939 1311.77 241.888C1308.92 247.783 1305.13 255.806 1300.97 264.177C1296.81 272.548 1292.27 281.276 1287.9 288.585C1283.55 295.883 1279.36 301.805 1275.88 304.531C1272.49 307.195 1269.48 311.316 1266.55 316.561C1263.63 321.803 1260.8 328.148 1257.77 335.24C1251.71 349.417 1244.86 366.569 1234.83 383.772L1234.36 383.637ZM1361.83 16.6668C1367.08 39.7541 1400.09 86.8981 1490.09 90.7797C1447.54 54.0854 1433.19 26.754 1361.83 16.6668ZM1154.71 0.913327C1195.49 17.2599 1285.71 37.8229 1304.53 1.31284C1280.15 -8.83219 1216.06 -23.1154 1154.71 0.913327ZM1144.46 106.565C1189.38 111.975 1285.93 100.389 1312.83 10.764C1303.45 23.3053 1267.51 53.179 1207.34 67.4072C1155.06 95.3133 1143.64 105.14 1144.46 106.565ZM1446.59 185.714C1436.39 163.108 1408.92 110.582 1387.58 95.8315C1370.51 84.0314 1355.88 43.375 1350.69 24.522C1342.05 43.2839 1335.91 93.186 1380.44 142.697C1416.83 168.705 1424.68 179.843 1446.59 185.714ZM1175.24 214.174C1198.48 199.326 1236.67 160.177 1240.28 146.693C1266.12 129.003 1298.79 85.7782 1311.35 43.0843C1301.62 61.084 1269.03 103.583 1215.58 131.04C1182.15 185.676 1174.76 209.228 1175.24 214.174ZM1366.13 263.518C1370.8 246.101 1377.92 202 1369.07 164.941C1343.47 136.404 1333.99 77.8586 1332.45 52.153C1327.75 62.9387 1321.69 97.6881 1335.03 150.4C1334.06 207.951 1355.36 249.792 1366.13 263.518ZM1261.37 276.997C1279.82 262.069 1307.67 191.847 1314.56 159.37C1310.64 130.859 1314.36 79.2225 1316.71 56.9684C1312.9 73.4132 1299.06 114.748 1274.11 148.531C1260.56 199.098 1253.46 218.874 1261.37 276.997Z" fill="#922227" fill-opacity="0.08"/>
<path d="M1490.02 92.5399C1399.39 88.6309 1365.59 41.0628 1360.13 17.0699L1359.57 14.6009L1362.08 14.9555C1397.99 20.032 1419.69 29.4729 1437.78 42.3393C1446.79 48.75 1454.88 55.9891 1463.33 63.8783C1471.8 71.7829 1480.63 80.3314 1491.24 89.4749L1495.04 92.7556L1490.02 92.5399ZM1237.71 22.6882C1207.5 20.0505 1174.58 10.7733 1154.06 2.54814L1149.97 0.909529L1154.07 -0.694979C1215.97 -24.9379 1280.55 -10.5427 1305.2 -0.283869L1306.95 0.444873L1306.08 2.12844C1301.06 11.8706 1291.35 17.6417 1279.34 20.6591C1267.34 23.6767 1252.8 24.0066 1237.71 22.6882ZM1364.19 18.7974C1370.86 41.3491 1402.75 83.6218 1485.13 88.7813C1476.12 80.8244 1468.34 73.3279 1460.95 66.4293C1452.51 58.5589 1444.57 51.4535 1435.75 45.184C1418.62 32.9987 1398.08 23.889 1364.19 18.7974ZM1159.61 0.957177C1179.99 8.63316 1210.21 16.7848 1238.01 19.2127C1252.92 20.5145 1267.02 20.161 1278.49 17.2766C1289.2 14.5865 1297.42 9.75146 1302.03 2.20847C1277.27 -7.51305 1217.62 -20.0589 1159.61 0.957177ZM1446.14 187.415C1434.91 184.406 1427.28 180.028 1417.92 173.18C1413.27 169.777 1408.16 165.737 1401.98 160.96C1397.34 157.371 1392.08 153.348 1385.91 148.824L1379.43 144.131L1379.28 144.023L1379.15 143.879C1334.13 93.8277 1340.19 43.1735 1349.11 23.8064L1351.11 19.4656L1352.38 24.0754C1354.95 33.4282 1359.87 48.2142 1366.27 62.1081C1369.46 69.0539 1373.01 75.7438 1376.8 81.4083C1380.6 87.0929 1384.57 91.6419 1388.58 94.4123C1394.13 98.2493 1399.97 104.46 1405.75 111.86C1411.54 119.283 1417.33 128.001 1422.76 136.937C1433.61 154.807 1443.06 173.654 1448.18 185.012L1449.7 188.368L1446.14 187.415ZM1142.95 107.453C1142.55 106.759 1142.67 106.064 1142.8 105.673C1142.93 105.269 1143.16 104.904 1143.38 104.603C1143.83 103.991 1144.52 103.282 1145.44 102.473C1147.3 100.837 1150.36 98.5525 1155.03 95.4746C1164.39 89.3089 1180.36 79.8464 1206.52 65.8836L1206.72 65.7786L1206.94 65.7244C1266.79 51.5717 1302.35 21.89 1311.44 9.73599L1314.51 11.2814C1300.87 56.7048 1269.55 82.3594 1236.06 95.9364C1202.62 109.49 1166.94 111.047 1144.25 108.313L1143.39 108.209L1142.95 107.453ZM1147.66 105.172C1169.96 107.366 1203.39 105.413 1234.75 92.7025C1265.46 80.2546 1294.12 57.5255 1308.51 18.2692C1293.78 32.9465 1259.75 56.7809 1207.97 69.0702C1181.97 82.955 1166.15 92.3232 1156.95 98.3881C1152.33 101.433 1149.42 103.615 1147.74 105.095C1147.71 105.119 1147.69 105.147 1147.66 105.172ZM1443.4 182.976C1438.09 171.582 1429.5 154.761 1419.77 138.749C1414.39 129.884 1408.68 121.29 1403 114.01C1397.3 106.708 1391.71 100.82 1386.59 97.2825C1382.07 94.1529 1377.81 89.1941 1373.9 83.3479C1369.98 77.4818 1366.34 70.6163 1363.1 63.567C1357.65 51.7139 1353.26 39.2427 1350.44 29.926C1343.28 50.8657 1341.04 96.2049 1381.63 141.417C1390.67 147.885 1397.95 153.431 1404.12 158.202C1410.34 163.012 1415.38 167 1419.98 170.366C1428.04 176.267 1434.63 180.172 1443.4 182.976ZM1173.5 214.36C1173.35 212.746 1173.82 210.05 1174.97 206.289C1176.15 202.442 1178.1 197.254 1181.1 190.543C1187.11 177.119 1197.35 157.503 1214.09 130.145L1214.35 129.727L1214.78 129.505C1267.72 102.313 1300.04 60.262 1309.73 42.4356C1310.06 41.3244 1310.37 40.214 1310.67 39.1046L1314.04 40.0078C1313.72 41.2018 1313.38 42.3967 1313.03 43.5914C1306.68 65.1614 1295.28 86.8159 1282.22 105.29C1269.35 123.509 1254.8 138.74 1241.79 147.785C1240.61 151.473 1237.46 156.439 1233.25 161.916C1228.75 167.783 1222.86 174.456 1216.38 181.152C1203.43 194.526 1187.97 208.131 1176.18 215.66L1173.78 217.193L1173.5 214.36ZM1364.76 264.613C1353.76 250.594 1332.37 208.456 1333.28 150.618C1319.97 97.7998 1325.96 62.7113 1330.86 51.4727L1334.2 52.0646C1334.96 64.8114 1337.7 85.7576 1343.43 107.049C1349.17 128.385 1357.85 149.832 1370.37 163.791L1370.66 164.12L1370.76 164.55C1379.72 202.01 1372.53 246.434 1367.82 263.986L1366.92 267.357L1364.76 264.613ZM1259.64 277.249C1255.67 248.085 1255.46 228.445 1257.97 209.716C1260.47 191.043 1265.67 173.313 1272.43 148.095L1272.52 147.776L1272.71 147.511C1297.48 113.974 1311.24 72.8796 1315.01 56.5921L1318.45 57.1674C1316.1 79.4341 1312.4 130.872 1316.29 159.146L1316.34 159.45L1316.27 159.747C1312.79 176.138 1304.06 201.93 1293.9 225.471C1288.82 237.251 1283.37 248.51 1278.01 257.778C1272.68 266.99 1267.35 274.421 1262.47 278.37L1260.06 280.318L1259.64 277.249ZM1365.35 259.516C1369.89 240.399 1375.53 200.043 1367.47 165.776C1354.56 151.197 1345.8 129.282 1340.06 107.953C1335.46 90.8713 1332.77 74.0161 1331.47 61.308C1327.94 76.8835 1325.97 107.48 1336.72 149.988L1336.78 150.214L1336.78 150.446C1335.88 203.909 1354.35 243.633 1365.35 259.516ZM1177.41 210.64C1188.43 203.033 1202.15 190.837 1213.87 178.724C1220.3 172.092 1226.09 165.522 1230.48 159.791C1234.94 153.987 1237.8 149.257 1238.6 146.257L1238.77 145.635L1239.3 145.27C1251.99 136.578 1266.48 121.521 1279.37 103.274C1289.39 89.0904 1298.39 73.0439 1304.83 56.6749C1289.88 77.7828 1260.19 109.984 1216.82 132.379C1200.28 159.44 1190.19 178.788 1184.29 191.968C1181.32 198.593 1179.43 203.639 1178.31 207.306C1177.91 208.611 1177.62 209.717 1177.41 210.64ZM1262.67 273.452C1266.43 269.59 1270.63 263.561 1274.99 256.03C1280.25 246.917 1285.65 235.79 1290.7 224.09C1300.74 200.806 1309.34 175.408 1312.8 159.307C1309.75 136.73 1311.39 100.199 1313.36 74.7842C1306.61 94.9806 1294.21 124.174 1275.72 149.308C1268.97 174.491 1263.88 191.865 1261.43 210.178C1259.07 227.798 1259.16 246.323 1262.67 273.452Z" fill="#922227" fill-opacity="0.08"/>
</g>
<g opacity="0.5">
<path d="M151.139 401.516C136.348 449.515 141.961 439.754 134.34 472.569C130.533 488.962 125.164 505.261 121.38 517.407C119.487 523.485 117.993 528.515 117.286 532.003C116.932 533.751 116.781 535.086 116.866 535.965C116.908 536.406 117.006 536.698 117.138 536.871C117.256 537.026 117.414 537.103 117.651 537.087C118.243 537.049 119.289 536.773 120.717 536.298C122.137 535.826 123.908 535.167 125.937 534.384C130.01 532.81 135.057 530.757 140.41 528.68C145.745 526.61 151.34 524.533 156.428 522.945C161.51 521.359 166.108 520.253 169.441 520.136C175.986 519.906 183.943 517.268 192.699 513.642C197.073 511.83 201.639 509.775 206.32 507.656C211 505.538 215.795 503.356 220.622 501.294L221.313 500.999L220.937 501.649C218.835 505.291 208.385 522.69 193.908 543.217C179.517 563.622 161.135 587.133 143.011 603.289C228.458 633.332 203.575 620.586 238.769 629.593L239.696 629.831L238.772 630.078C225.415 633.658 200.667 644.383 175.924 654.345C163.559 659.323 151.202 664.109 140.284 667.707C129.715 671.191 120.472 673.57 113.874 673.927C126.706 685.045 145.964 695.352 164.914 703.74C184.093 712.23 202.932 718.748 214.416 722.15L215.267 722.402L214.41 722.632C192.745 728.439 139.164 739.317 98.1871 736.358C77.6726 734.877 54.643 726.431 34.2031 716.488C13.7783 706.553 -4.08346 695.112 -14.3029 687.597C-21.5326 685.045 -43.9142 674.37 -76.1094 651.911C-96.3088 637.819 -113.962 613.06 -127.945 586.198C-141.931 559.331 -152.261 530.331 -157.803 507.73L-157.336 507.557C-153.575 514.948 -147.129 521.892 -139.237 528.338C-131.346 534.784 -122.021 540.722 -112.52 546.107C-103.019 551.491 -93.3459 556.32 -84.7577 560.546C-76.5157 564.602 -69.2641 568.109 -64.1338 571.018C-65.492 567.493 -67.2967 560.431 -69.3068 551.195C-71.4564 541.317 -73.8464 528.929 -76.1835 515.664C-80.8575 489.135 -85.3221 459.089 -87.226 438.595L-87.3111 437.68L-86.7731 438.426C-77.8143 450.861 -60.4349 471.795 -45.1371 488.298C-37.4873 496.551 -30.3651 503.688 -25.0814 508.098C-22.4345 510.307 -20.2696 511.814 -18.741 512.444C-17.9702 512.762 -17.4126 512.834 -17.049 512.719C-16.7234 512.615 -16.4878 512.335 -16.4158 511.733C-15.1478 501.106 -3.8364 459.129 33.9449 393.69L34.3712 392.951L34.4128 393.803C35.5232 417.076 36.1974 421.46 37.2529 424.458C37.7769 425.946 38.4253 427.162 39.2648 430.176C40.1065 433.198 41.1504 438.051 42.4991 446.91C45.1939 464.612 48.2969 478.107 50.8768 487.261C52.1668 491.838 53.3253 495.328 54.2356 497.715C54.6908 498.908 55.0833 499.822 55.3971 500.457C55.5541 500.775 55.6897 501.018 55.8015 501.19C55.8574 501.276 55.905 501.341 55.9442 501.386C55.9474 501.39 55.9511 501.393 55.9541 501.397C55.955 501.396 55.957 501.396 55.9581 501.396C56.0369 501.347 56.1509 501.259 56.3016 501.125C56.6012 500.858 57.014 500.441 57.5295 499.889C58.5592 498.786 59.9808 497.163 61.6963 495.175C65.1254 491.202 69.7241 485.774 74.6847 480.155C79.6455 474.536 84.974 468.719 89.8686 463.962C94.7534 459.214 99.2362 455.493 102.501 454.098C105.672 452.743 108.855 450.182 112.208 446.73C115.559 443.279 119.063 438.955 122.881 434.092C130.511 424.37 139.381 412.507 150.724 401.265L151.139 401.516ZM-23.7678 659.229C-23.0462 640.26 -38.8248 596.903 -107.714 575.223C-82.3765 612.468 -76.9331 636.611 -23.7678 659.229ZM133.358 714.406C105.171 693.286 39.5665 658.64 17.4208 683.009C34.1931 695.924 80.8617 720.283 133.358 714.406ZM163.214 634.716C129.556 621.207 52.3823 610.145 12.9505 673.967C22.8177 666.202 56.8499 650.526 106.398 651.993C152.669 641.229 163.555 635.99 163.214 634.716ZM-54.3293 510.733C-51.1211 530.355 -40.7462 576.731 -27.284 592.581C-16.5142 605.26 -13.6162 639.781 -13.5135 655.456C-2.92966 642.72 12.1841 605.352 -12.0313 557.77C-34.8097 530.08 -38.5809 519.826 -54.3293 510.733ZM161.71 544.999C140.627 551.674 102.932 574.066 97.3358 583.759C73.6611 592.097 39.3895 618.79 20.8037 649.246C32.0728 637.326 66.132 611.178 113.221 601.007C150.442 565.634 161.056 548.93 161.71 544.999ZM24.1201 467.177C16.8918 479.697 2.22754 512.37 1.39572 542.906C15.2917 570.314 10.4862 617.619 6.34638 637.845C12.2212 630.467 24.1243 604.815 24.7374 561.229C37.4304 516.864 29.6144 480.042 24.1201 467.177ZM108.048 478.478C90.6622 486.21 54.5262 534.81 42.447 558.53C39.5677 581.422 25.9726 620.637 19.5351 637.382C25.8932 625.437 45.192 596.301 71.5214 575.316C92.5066 538.969 102.112 525.129 108.048 478.478Z" fill="#922227" fill-opacity="0.25"/>
<path d="M-107.292 573.874C-37.9178 595.707 -21.6174 639.556 -22.3675 659.269L-22.4441 661.298L-24.3132 660.502C-51.0693 649.12 -65.9166 637.306 -77.254 623.589C-82.9029 616.754 -87.661 609.471 -92.5708 601.608C-97.4902 593.729 -102.557 585.276 -108.87 575.995L-111.134 572.666L-107.292 573.874ZM73.6033 680.321C96.4471 688.631 120.015 702.646 134.197 713.273L137.023 715.39L133.516 715.782C80.5518 721.712 33.5278 697.164 16.5674 684.105L15.3672 683.178L16.3882 682.055C22.2978 675.552 31.0153 673.098 40.938 673.253C50.8619 673.407 62.185 676.167 73.6033 680.321ZM-25.1558 657.088C-25.6383 638.241 -41.5589 598.889 -104.287 577.799C-98.9578 585.831 -94.4887 593.251 -90.1953 600.127C-85.2972 607.972 -80.6199 615.122 -75.0954 621.806C-64.358 634.797 -50.339 646.114 -25.1558 657.088ZM129.573 713.355C115.384 703.182 93.674 690.599 72.6473 682.95C61.3732 678.848 50.3809 676.196 40.8949 676.048C32.048 675.911 24.6799 677.949 19.5388 682.832C36.6948 695.498 80.287 717.591 129.573 713.355ZM-53.6283 509.508C-45.5563 514.169 -40.5515 519.143 -34.7257 526.388C-31.8308 529.988 -28.7099 534.178 -24.9207 539.158C-22.0728 542.9 -18.8317 547.108 -14.9935 551.89L-10.9496 556.869L-10.8526 556.985L-10.7837 557.123C13.6961 605.224 -1.51053 643.192 -12.4357 656.339L-14.8846 659.285L-14.9114 655.452C-14.9623 647.676 -15.7061 635.204 -17.7745 623.118C-18.8085 617.076 -20.169 611.159 -21.9255 605.987C-23.6882 600.797 -25.8195 596.45 -28.3479 593.473C-31.8498 589.35 -35.0887 583.328 -38.024 576.399C-40.9682 569.449 -43.6454 561.496 -45.9935 553.45C-50.6891 537.36 -54.0955 520.804 -55.7074 510.946L-56.1836 508.033L-53.6283 509.508ZM164.566 634.341C164.733 634.961 164.494 635.474 164.314 635.751C164.128 636.036 163.878 636.273 163.646 636.46C163.173 636.841 162.489 637.246 161.609 637.682C159.828 638.562 156.981 639.696 152.727 641.11C144.205 643.944 129.869 647.957 106.717 653.342L106.539 653.382L106.358 653.378C57.0733 651.919 23.3788 667.526 13.8162 675.051L11.7609 673.218C31.7456 640.872 61.3227 627.504 90.0782 623.94C118.786 620.383 146.734 626.58 163.738 633.405L164.385 633.665L164.566 634.341ZM160.448 635.131C143.637 628.805 117.342 623.381 90.4218 626.717C64.0578 629.984 37.1429 641.637 17.8573 669.052C32.3076 660.742 63.6092 649.347 106.255 650.574C129.271 645.216 143.464 641.244 151.846 638.456C156.054 637.057 158.759 635.97 160.369 635.174C160.396 635.16 160.422 635.144 160.448 635.131ZM-52.427 513.515C-50.6768 523.44 -47.5149 538.249 -43.3073 552.666C-40.9779 560.648 -38.3364 568.488 -35.4489 575.305C-32.5526 582.141 -29.4458 587.86 -26.2169 591.662C-23.3605 595.025 -21.0892 599.749 -19.2764 605.087C-17.4575 610.443 -16.0683 616.514 -15.0189 622.646C-13.2543 632.957 -12.4446 643.525 -12.1992 651.323C-2.30622 636.594 8.83649 601.949 -13.2127 558.516C-18.8732 551.63 -23.3622 545.825 -27.1473 540.85C-30.9635 535.836 -34.0409 531.701 -36.9045 528.14C-41.9246 521.897 -46.2167 517.505 -52.427 513.515ZM163.091 545.214C162.877 546.497 161.95 548.486 160.279 551.16C158.571 553.895 155.982 557.507 152.264 562.081C144.827 571.23 132.825 584.294 114.187 602.007L113.901 602.278L113.519 602.36C66.8843 612.433 33.131 638.291 21.9249 650.084C21.4422 650.877 20.9701 651.672 20.5097 652.469L18.0869 651.07C18.5824 650.212 19.0895 649.356 19.6096 648.504C28.9996 633.117 42.3271 618.715 56.268 607.118C70.0164 595.68 84.4483 586.906 96.3992 582.6C98.0773 579.989 101.548 576.797 105.941 573.428C110.646 569.82 116.59 565.874 123 562.034C135.801 554.364 150.6 547.037 161.289 543.653L163.466 542.963L163.091 545.214ZM25.4084 466.613C31.02 479.752 38.8446 516.822 26.1339 561.421C25.4869 605.087 13.5628 631.015 7.44131 638.702L4.9767 637.551C7.02954 627.521 9.25666 610.733 9.23866 593.056C9.22057 575.343 6.94614 556.932 0.14881 543.525L-0.00971486 543.21L-0.000658736 542.855C0.840116 511.99 15.6265 479.08 22.9105 466.464L24.3095 464.041L25.4084 466.613ZM109.437 478.64C106.459 502.049 102.55 517.302 96.7219 531.285C90.9111 545.226 83.1993 557.876 72.7343 576.002L72.6018 576.231L72.396 576.397C46.2583 597.228 27.0704 626.194 20.7728 638.025L18.2303 636.867C24.6715 620.111 38.2047 581.045 41.0602 558.343L41.0908 558.099L41.2029 557.882C47.2993 545.911 59.4113 527.75 72.1609 511.627C78.5407 503.56 85.1022 495.973 91.1742 489.908C97.21 483.879 102.883 479.231 107.482 477.186L109.752 476.178L109.437 478.64ZM23.897 470.438C16.4152 484.301 3.6724 514.381 2.80855 542.591C9.77686 556.558 12.0165 575.347 12.0345 593.055C12.0489 607.237 10.6346 620.847 9.00938 630.959C14.9696 619.629 22.845 596.345 23.3395 561.196L23.3434 561.009L23.3933 560.83C35.1844 519.616 29.124 485.021 23.897 470.438ZM159.293 547.284C149.184 550.889 136.029 557.487 124.435 564.433C118.086 568.237 112.239 572.124 107.644 575.648C102.989 579.218 99.7942 582.288 98.5493 584.444L98.291 584.892L97.8033 585.064C86.1712 589.161 71.8264 597.815 58.0568 609.271C47.354 618.175 37.0563 628.734 28.6783 640.075C44.6311 626.83 74.3014 608.054 112.537 599.711C130.959 582.187 142.792 569.299 150.093 560.316C153.763 555.801 156.278 552.287 157.907 549.679C158.486 548.752 158.94 547.955 159.293 547.284ZM106.307 480.953C102.587 483.162 98.0849 486.96 93.1508 491.888C87.1805 497.852 80.6949 505.349 74.3579 513.363C61.7478 529.309 49.8191 547.192 43.8015 558.944C41.4736 577.059 32.6278 605.008 25.8253 624.28C35.244 610.041 50.9024 590.007 70.4399 574.381C80.8933 556.28 88.4388 543.882 94.1376 530.209C99.6209 517.054 103.395 502.69 106.307 480.953Z" fill="#922227" fill-opacity="0.25"/>
</g>
</g>
<defs>
<clipPath id="clip0_586_2414">
<rect width="1440" height="665" fill="white" transform="translate(0.0825195 0.349609)"/>
</clipPath>
</defs>
</svg>
