<svg width="24" height="25" viewBox="0 0 24 25" fill="none" xmlns="http://www.w3.org/2000/svg">
<path d="M6.0083 9.69141H8.0083C8.14091 9.69141 8.26805 9.74412 8.36182 9.83789C8.45558 9.93166 8.5083 10.0588 8.5083 10.1914C8.5083 10.324 8.45558 10.4512 8.36182 10.5449C8.26805 10.6387 8.14091 10.6914 8.0083 10.6914H6.0083C5.61048 10.6914 5.22906 10.8496 4.94775 11.1309C4.66645 11.4122 4.5083 11.7936 4.5083 12.1914V19.1914C4.5083 19.5892 4.66645 19.9706 4.94775 20.252C5.22906 20.5333 5.61048 20.6914 6.0083 20.6914H18.0083C18.4061 20.6914 18.7875 20.5333 19.0688 20.252C19.3502 19.9706 19.5083 19.5892 19.5083 19.1914V12.1914C19.5083 11.7936 19.3502 11.4122 19.0688 11.1309C18.7875 10.8496 18.4061 10.6914 18.0083 10.6914H16.0083C15.8757 10.6914 15.7486 10.6387 15.6548 10.5449C15.561 10.4512 15.5083 10.324 15.5083 10.1914C15.5083 10.0588 15.561 9.93166 15.6548 9.83789C15.7486 9.74412 15.8757 9.69141 16.0083 9.69141H18.0083C18.6713 9.69141 19.307 9.95499 19.7759 10.4238C20.2447 10.8927 20.5083 11.5284 20.5083 12.1914V19.1914C20.5083 19.8544 20.2447 20.4901 19.7759 20.959C19.307 21.4278 18.6713 21.6914 18.0083 21.6914H6.0083C5.34526 21.6914 4.70956 21.4278 4.24072 20.959C3.77188 20.4901 3.5083 19.8544 3.5083 19.1914V12.1914C3.5083 11.5284 3.77188 10.8927 4.24072 10.4238C4.70956 9.95499 5.34526 9.69141 6.0083 9.69141ZM12.0083 2.69141C12.1409 2.69141 12.268 2.74412 12.3618 2.83789C12.4556 2.93166 12.5083 3.0588 12.5083 3.19141V15.9951L13.3628 15.1338L14.6519 13.835C14.7464 13.7404 14.8746 13.6875 15.0083 13.6875C15.142 13.6875 15.2702 13.7404 15.3647 13.835C15.4593 13.9295 15.5122 14.0577 15.5122 14.1914C15.5122 14.3251 15.4593 14.4533 15.3647 14.5479L12.3638 17.5488C12.3173 17.5957 12.2616 17.6338 12.2007 17.6592C12.1398 17.6845 12.0743 17.6973 12.0083 17.6973C11.9423 17.6973 11.8768 17.6845 11.8159 17.6592C11.755 17.6338 11.6993 17.5957 11.6528 17.5488L8.65088 14.5469L8.5874 14.4707C8.56906 14.4434 8.55323 14.4143 8.54053 14.3838C8.51516 14.3229 8.50244 14.2574 8.50244 14.1914C8.50244 14.1254 8.51516 14.0599 8.54053 13.999C8.56591 13.9381 8.60401 13.8824 8.65088 13.8359L8.65283 13.834C8.69931 13.7871 8.75499 13.749 8.81592 13.7236C8.87683 13.6983 8.94232 13.6855 9.0083 13.6855C9.07428 13.6855 9.13977 13.6983 9.20068 13.7236C9.26161 13.749 9.31729 13.7871 9.36377 13.834L10.6538 15.1338L11.5083 15.9951V3.19141C11.5083 3.0588 11.561 2.93166 11.6548 2.83789C11.7252 2.76749 11.8144 2.72034 11.9106 2.70117L12.0083 2.69141Z" fill="black" stroke="white"/>
</svg>
