<svg width="21" height="21" viewBox="0 0 21 21" fill="none" xmlns="http://www.w3.org/2000/svg">
<g clip-path="url(#clip0_586_2494)">
<path d="M20.0825 10.3496C20.0825 4.82617 15.606 0.349609 10.0825 0.349609C4.55908 0.349609 0.0825195 4.82617 0.0825195 10.3496C0.0825195 15.0371 3.31299 18.9746 7.66846 20.0566V13.4043H5.60596V10.3496H7.66846V9.0332C7.66846 5.63086 9.20752 4.05273 12.5513 4.05273C13.1841 4.05273 14.2778 4.17773 14.7271 4.30273V7.06836C14.4927 7.04492 14.0825 7.0293 13.5708 7.0293C11.9302 7.0293 11.2974 7.65039 11.2974 9.26367V10.3496H14.563L14.0005 13.4043H11.2935V20.2754C16.2466 19.6777 20.0825 15.4629 20.0825 10.3496Z" fill="#922227"/>
</g>
<defs>
<clipPath id="clip0_586_2494">
<rect width="20" height="20" fill="white" transform="translate(0.0825195 0.349609)"/>
</clipPath>
</defs>
</svg>
