<svg width="21" height="22" viewBox="0 0 21 22" fill="none" xmlns="http://www.w3.org/2000/svg">
<path d="M0.959645 1.0619C0.720764 1.3057 0.58252 1.68527 0.58252 2.17683V19.7105C0.58252 20.202 0.720764 20.5816 0.959645 20.8254L1.0186 20.8789L11.0963 11.0576V10.8257L1.0186 1.00442L0.959645 1.0619Z" fill="#922227"/>
<path d="M15.6729 14.333L12.3174 11.0576V10.8257L15.677 7.55027L15.7522 7.59289L19.7308 9.79995C20.8662 10.4263 20.8662 11.457 19.7308 12.0873L15.7522 14.2904L15.6729 14.333Z" fill="#922227"/>
<path d="M15.1418 14.8998L11.707 11.5511L1.57031 21.4348C1.94744 21.8213 2.56243 21.8679 3.26179 21.4814L15.1418 14.8998Z" fill="#922227"/>
<path d="M15.1418 6.9823L3.26179 0.400753C2.56243 0.018209 1.94744 0.064787 1.57031 0.451295L11.707 10.3311L15.1418 6.9823Z" fill="#922227"/>
</svg>
