<svg width="190" height="72" viewBox="0 0 190 72" fill="none" xmlns="http://www.w3.org/2000/svg">
<path d="M188.945 63.1617C188.945 66.9454 186.526 70.0102 183.534 70.0102H6.47323C3.48291 70.0102 1.05566 66.9454 1.05566 63.1617V8.54692C1.05566 4.76503 3.48291 1.68945 6.47323 1.68945H183.533C186.526 1.68945 188.943 4.76503 188.943 8.54692L188.945 63.1617Z" fill="white"/>
<path d="M182.963 1.77183C186.221 1.77183 188.872 5.11549 188.872 9.22462V62.4746C188.872 66.5837 186.221 69.9274 182.963 69.9274H7.03704C3.77889 69.9274 1.12768 66.5837 1.12768 62.4746V9.22462C1.12768 5.11549 3.77889 1.77183 7.03704 1.77183H182.963ZM182.963 0.349615H7.03704C3.16843 0.349615 0 4.34559 0 9.22462V62.4746C0 67.3536 3.16843 71.3496 7.03704 71.3496H182.963C186.832 71.3496 190 67.3536 190 62.4746V9.22462C190 4.34559 186.832 0.349615 182.963 0.349615Z" fill="#A6A6A6"/>
<path d="M15.8978 17.7292C15.4844 18.1289 15.2451 18.7513 15.2451 19.5573V48.3068C15.2451 49.1128 15.4844 49.7352 15.8978 50.1349L15.9998 50.2227L33.4411 34.1189V33.7387L15.9998 17.6349L15.8978 17.7292Z" fill="#212429"/>
<path d="M41.3596 39.4902L35.5522 34.1196V33.7394L41.3666 28.3687L41.4968 28.4386L48.3825 32.0575C50.3476 33.0845 50.3476 34.7745 48.3825 35.808L41.4968 39.4204L41.3596 39.4902Z" fill="#212429"/>
<path d="M40.441 40.4199L34.4965 34.929L16.9531 51.1352C17.6058 51.7689 18.6702 51.8453 19.8805 51.2115L40.441 40.4199Z" fill="#212429"/>
<path d="M40.441 27.4388L19.8805 16.6472C18.6702 16.0199 17.6058 16.0963 16.9531 16.7301L34.4965 32.9297L40.441 27.4388Z" fill="#212429"/>
<path d="M64.4788 22.6463C64.4788 23.7318 64.1269 24.6012 63.4338 25.2495C62.6369 26.0182 61.5989 26.4049 60.3269 26.4049C59.1113 26.4049 58.0733 26.0117 57.2218 25.2365C56.3686 24.45 55.9429 23.4848 55.9429 22.3294C55.9429 21.174 56.3686 20.2088 57.2218 19.4288C58.0733 18.6472 59.1113 18.2539 60.3269 18.2539C60.9321 18.2539 61.5092 18.3693 62.0598 18.5838C62.6087 18.7999 63.0556 19.0924 63.3793 19.4532L62.6439 20.1389C62.0792 19.523 61.3104 19.2192 60.3269 19.2192C59.4403 19.2192 58.6715 19.5052 58.0188 20.082C57.3731 20.6605 57.0494 21.4097 57.0494 22.3294C57.0494 23.2492 57.3731 24.0048 58.0188 24.5833C58.6715 25.1537 59.4403 25.4462 60.3269 25.4462C61.2682 25.4462 62.0598 25.1537 62.6844 24.5768C63.096 24.1949 63.33 23.6684 63.3916 22.9957H60.3269V22.0564H64.4155C64.4647 22.2595 64.4788 22.4562 64.4788 22.6463Z" fill="#212429" stroke="#212429" stroke-width="0.16" stroke-miterlimit="10"/>
<path d="M70.9653 19.3907H67.1248V21.8607H70.587V22.8H67.1248V25.27H70.9653V26.2271H66.0376V18.4336H70.9653V19.3907Z" fill="#212429" stroke="#212429" stroke-width="0.16" stroke-miterlimit="10"/>
<path d="M75.543 26.2271H74.4557V19.3907H72.1001V18.4336H77.9004V19.3907H75.543V26.2271Z" fill="#212429" stroke="#212429" stroke-width="0.16" stroke-miterlimit="10"/>
<path d="M82.0977 26.2271V18.4336H83.1831V26.2271H82.0977Z" fill="#212429" stroke="#212429" stroke-width="0.16" stroke-miterlimit="10"/>
<path d="M87.9946 26.2271H86.9162V19.3907H84.5518V18.4336H90.3591V19.3907H87.9946V26.2271Z" fill="#212429" stroke="#212429" stroke-width="0.16" stroke-miterlimit="10"/>
<path d="M101.341 25.2235C100.509 26.0117 99.4776 26.4049 98.2479 26.4049C97.0111 26.4049 95.9802 26.0117 95.1481 25.2235C94.3177 24.437 93.9043 23.4718 93.9043 22.3294C93.9043 21.187 94.3177 20.2218 95.1481 19.4353C95.9802 18.6472 97.0111 18.2539 98.2479 18.2539C99.4706 18.2539 100.502 18.6472 101.334 19.4418C102.171 20.2348 102.584 21.1935 102.584 22.3294C102.584 23.4718 102.171 24.437 101.341 25.2235ZM95.9521 24.5703C96.5784 25.1537 97.3401 25.4462 98.2479 25.4462C99.1486 25.4462 99.9174 25.1537 100.537 24.5703C101.161 23.9869 101.478 23.2378 101.478 22.3294C101.478 21.421 101.161 20.6719 100.537 20.0885C99.9174 19.5052 99.1486 19.2127 98.2479 19.2127C97.3401 19.2127 96.5784 19.5052 95.9521 20.0885C95.3275 20.6719 95.0109 21.421 95.0109 22.3294C95.0109 23.2378 95.3275 23.9869 95.9521 24.5703Z" fill="#212429" stroke="#212429" stroke-width="0.16" stroke-miterlimit="10"/>
<path d="M104.109 26.2271V18.4336H105.429L109.531 24.4948H109.579L109.531 22.9966V18.4336H110.617V26.2271H109.484L105.188 19.8668H105.14L105.188 21.3716V26.2271H104.109Z" fill="#212429" stroke="#212429" stroke-width="0.16" stroke-miterlimit="10"/>
<path d="M94.0775 39.0361C90.7719 39.0361 88.0714 41.3598 88.0714 44.566C88.0714 47.7461 90.7719 50.0942 94.0775 50.0942C97.3902 50.0942 100.091 47.7461 100.091 44.566C100.091 41.3598 97.3902 39.0361 94.0775 39.0361ZM94.0775 47.9167C92.2637 47.9167 90.7033 46.5338 90.7033 44.566C90.7033 42.5721 92.2637 41.2136 94.0775 41.2136C95.8913 41.2136 97.4588 42.5721 97.4588 44.566C97.4588 46.5338 95.8913 47.9167 94.0775 47.9167ZM80.9728 39.0361C77.6601 39.0361 74.9667 41.3598 74.9667 44.566C74.9667 47.7461 77.6601 50.0942 80.9728 50.0942C84.2837 50.0942 86.9789 47.7461 86.9789 44.566C86.9789 41.3598 84.2837 39.0361 80.9728 39.0361ZM80.9728 47.9167C79.1573 47.9167 77.5915 46.5338 77.5915 44.566C77.5915 42.5721 79.1573 41.2136 80.9728 41.2136C82.7866 41.2136 84.3471 42.5721 84.3471 44.566C84.3471 46.5338 82.7866 47.9167 80.9728 47.9167ZM65.3787 40.731V43.0807H71.4535C71.2758 44.3937 70.8008 45.359 70.0724 46.0317C69.1858 46.8442 67.8048 47.7461 65.3787 47.7461C61.6403 47.7461 58.7129 44.9592 58.7129 41.5061C58.7129 38.053 61.6403 35.2661 65.3787 35.2661C67.4001 35.2661 68.8709 35.9957 69.9563 36.9415L71.749 35.2856C70.2308 33.9466 68.2112 32.918 65.3787 32.918C60.2523 32.918 55.9438 36.7708 55.9438 41.5061C55.9438 46.2413 60.2523 50.0942 65.3787 50.0942C68.1496 50.0942 70.2308 49.2557 71.8669 47.6827C73.5435 46.1341 74.066 43.9566 74.066 42.1983C74.066 41.6523 74.0167 41.1502 73.9287 40.731H65.3787ZM129.145 42.5526C128.65 41.316 127.125 39.0361 124.018 39.0361C120.94 39.0361 118.376 41.277 118.376 44.566C118.376 47.6632 120.913 50.0942 124.314 50.0942C127.064 50.0942 128.65 48.5456 129.303 47.6437L127.262 46.3876C126.582 47.3073 125.654 47.9167 124.314 47.9167C122.982 47.9167 122.027 47.3528 121.415 46.2413L129.421 43.1815L129.145 42.5526ZM120.982 44.3937C120.913 42.2617 122.775 41.1697 124.108 41.1697C125.153 41.1697 126.04 41.6523 126.335 42.343L120.982 44.3937ZM114.474 49.7578H117.106V33.5078H114.474V49.7578ZM110.164 40.2678H110.076C109.485 39.6211 108.357 39.0361 106.929 39.0361C103.931 39.0361 101.19 41.4671 101.19 44.5838C101.19 47.6827 103.931 50.0942 106.929 50.0942C108.357 50.0942 109.485 49.5043 110.076 48.8381H110.164V49.6311C110.164 51.7452 108.942 52.8811 106.969 52.8811C105.361 52.8811 104.364 51.8086 103.952 50.9067L101.663 51.7891C102.323 53.2548 104.07 55.0586 106.969 55.0586C110.055 55.0586 112.659 53.3816 112.659 49.3012V39.3725H110.164V40.2678ZM107.154 47.9167C105.34 47.9167 103.822 46.5143 103.822 44.5838C103.822 42.6355 105.34 41.2136 107.154 41.2136C108.942 41.2136 110.351 42.6355 110.351 44.5838C110.351 46.5143 108.942 47.9167 107.154 47.9167ZM141.467 33.5078H135.172V49.7578H137.797V43.6007H141.467C144.382 43.6007 147.241 41.6523 147.241 38.5535C147.241 35.4562 144.375 33.5078 141.467 33.5078ZM141.535 41.3403H137.797V35.7682H141.535C143.495 35.7682 144.614 37.2713 144.614 38.5535C144.614 39.8112 143.495 41.3403 141.535 41.3403ZM157.761 39.0052C155.864 39.0052 153.892 39.7787 153.081 41.4931L155.411 42.395C155.912 41.4931 156.834 41.2006 157.808 41.2006C159.17 41.2006 160.551 41.9562 160.572 43.2903V43.461C160.097 43.2075 159.08 42.8321 157.83 42.8321C155.321 42.8321 152.765 44.1077 152.765 46.4883C152.765 48.6658 154.819 50.0682 157.129 50.0682C158.896 50.0682 159.87 49.3321 160.483 48.4757H160.572V49.7318H163.107V43.4983C163.107 40.6172 160.778 39.0052 157.761 39.0052ZM157.444 47.9102C156.586 47.9102 155.389 47.517 155.389 46.5338C155.389 45.2761 156.881 44.7935 158.173 44.7935C159.328 44.7935 159.87 45.0291 160.572 45.3395C160.366 46.8442 158.964 47.9102 157.444 47.9102ZM172.343 39.3611L169.326 46.4055H169.237L166.117 39.3611H163.287L167.973 49.2053L165.299 54.6832H168.042L175.264 39.3611H172.343ZM148.683 49.7578H151.315V33.5078H148.683V49.7578Z" fill="#212429"/>
</svg>
