<svg width="21" height="21" viewBox="0 0 21 21" fill="none" xmlns="http://www.w3.org/2000/svg">
<path d="M6.58236 2.01562H13.5824C16.249 2.01562 18.4157 4.18229 18.4157 6.84896V13.849C18.4157 15.1308 17.9065 16.3602 17 17.2666C16.0936 18.1731 14.8642 18.6823 13.5824 18.6823H6.58236C3.91569 18.6823 1.74902 16.5156 1.74902 13.849V6.84896C1.74902 5.56708 2.25825 4.3377 3.16467 3.43128C4.0711 2.52485 5.30048 2.01563 6.58236 2.01562ZM6.41569 3.68229C5.62004 3.68229 4.85698 3.99836 4.29437 4.56097C3.73176 5.12358 3.41569 5.88664 3.41569 6.68229V14.0156C3.41569 15.674 4.75736 17.0156 6.41569 17.0156H13.749C14.5447 17.0156 15.3077 16.6996 15.8703 16.1369C16.433 15.5743 16.749 14.8113 16.749 14.0156V6.68229C16.749 5.02396 15.4074 3.68229 13.749 3.68229H6.41569ZM14.4574 4.93229C14.7336 4.93229 14.9986 5.04204 15.1939 5.23739C15.3893 5.43274 15.499 5.69769 15.499 5.97396C15.499 6.25023 15.3893 6.51518 15.1939 6.71053C14.9986 6.90588 14.7336 7.01562 14.4574 7.01562C14.1811 7.01562 13.9161 6.90588 13.7208 6.71053C13.5254 6.51518 13.4157 6.25023 13.4157 5.97396C13.4157 5.69769 13.5254 5.43274 13.7208 5.23739C13.9161 5.04204 14.1811 4.93229 14.4574 4.93229ZM10.0824 6.18229C11.1874 6.18229 12.2472 6.62128 13.0286 7.40268C13.81 8.18408 14.249 9.24389 14.249 10.349C14.249 11.454 13.81 12.5138 13.0286 13.2952C12.2472 14.0766 11.1874 14.5156 10.0824 14.5156C8.97729 14.5156 7.91748 14.0766 7.13608 13.2952C6.35468 12.5138 5.91569 11.454 5.91569 10.349C5.91569 9.24389 6.35468 8.18408 7.13608 7.40268C7.91748 6.62128 8.97729 6.18229 10.0824 6.18229ZM10.0824 7.84896C9.41932 7.84896 8.78343 8.11235 8.31459 8.58119C7.84575 9.05003 7.58236 9.68592 7.58236 10.349C7.58236 11.012 7.84575 11.6479 8.31459 12.1167C8.78343 12.5856 9.41932 12.849 10.0824 12.849C10.7454 12.849 11.3813 12.5856 11.8501 12.1167C12.319 11.6479 12.5824 11.012 12.5824 10.349C12.5824 9.68592 12.319 9.05003 11.8501 8.58119C11.3813 8.11235 10.7454 7.84896 10.0824 7.84896Z" fill="#922227"/>
</svg>
