<svg width="116" height="78" viewBox="0 0 116 78" fill="none" xmlns="http://www.w3.org/2000/svg">
<path d="M57.8359 0.814453C59.3033 7.23423 59.2883 5.71739 60.584 9.97461C61.2285 12.0924 61.6897 14.3028 62.0557 15.9268C62.2395 16.7425 62.3975 17.4041 62.543 17.8379C62.6168 18.0581 62.6821 18.2007 62.7354 18.2754C62.7859 18.231 62.8616 18.1575 62.959 18.0479C63.0867 17.904 63.2433 17.7155 63.4219 17.4941C63.7865 17.042 64.2124 16.4933 64.6914 15.8975C65.1621 15.312 65.6645 14.706 66.1416 14.1885C66.6155 13.6745 67.0767 13.2345 67.4658 12.9912C68.1689 12.5517 68.8857 11.7496 69.6416 10.7646C70.0178 10.2744 70.4002 9.74287 70.793 9.19531C71.1852 8.64851 71.5888 8.08534 72.0029 7.5332L72.333 7.09277V7.64258C72.333 8.19775 72.2869 10.8643 71.9883 14.1494C71.6994 17.3268 71.1705 21.0965 70.2158 24.0986C81.5894 21.9575 77.9618 22.144 82.5566 20.8574L83.2305 20.6689L82.7354 21.1641C81.4618 22.4376 79.3648 25.2643 77.2012 28.0264C76.123 29.4027 75.0307 30.7605 74.0234 31.8887C73.1784 32.8351 72.3816 33.6289 71.6992 34.1396C73.814 34.4838 76.5001 34.3892 79.0547 34.1152C81.7825 33.8226 84.3436 33.3291 85.8652 32.9639L86.4971 32.8115L86.0371 33.2715C83.9535 35.3551 78.5678 40.1178 73.6973 42.4795C71.2449 43.6685 68.0525 44.221 65.0723 44.4326C62.1035 44.6434 59.3254 44.5161 57.6611 44.333C56.6268 44.5201 53.3805 44.7678 48.2852 44.3311C45.0313 44.052 41.3782 42.3823 38.0215 40.2441C34.6609 38.1035 31.5763 35.48 29.457 33.2686L29.6895 32.9883C30.5767 33.5649 31.742 33.9257 33.0508 34.1387C34.3577 34.3512 35.7971 34.4147 37.2246 34.4033C38.6517 34.3919 40.0634 34.3057 41.3154 34.2227C42.3255 34.1556 43.2376 34.092 43.9658 34.0693C43.5642 33.6971 43.0072 33.1161 42.3555 32.3994C41.462 31.4168 40.3762 30.1655 39.2402 28.8115C36.9687 26.1041 34.4892 22.9806 32.9258 20.7734L32.5361 20.2236L33.1504 20.5C34.9761 21.3216 38.3166 22.558 41.1318 23.4277C42.5403 23.8629 43.8101 24.2038 44.6895 24.3564C45.1339 24.4336 45.4594 24.4589 45.6494 24.4336C45.6999 24.4268 45.7307 24.417 45.748 24.4102V24.4092C45.1839 23.0927 43.7148 17.5605 43.7148 7.64258V7.01855L44.0527 7.54395C45.7099 10.1217 46.0609 10.5523 46.3564 10.8057C46.498 10.9269 46.6718 11.0399 46.9678 11.3301C47.2678 11.6242 47.709 12.1121 48.4443 13.0312C49.9075 14.8603 51.1409 16.1852 52.0293 17.0508C52.4735 17.4836 52.8305 17.8011 53.0859 18.0088C53.1879 18.0917 53.2734 18.1552 53.3398 18.2021C53.3459 18.178 53.3546 18.1512 53.3613 18.1221C53.4052 17.9326 53.46 17.6574 53.5244 17.3193C53.653 16.6452 53.8195 15.7248 54.0146 14.7607C54.2098 13.7963 54.4342 12.7816 54.6797 11.915C54.9224 11.0583 55.194 10.3158 55.4922 9.91797C55.7456 9.57994 55.9334 9.10262 56.0859 8.49805C56.2381 7.8951 56.3522 7.18136 56.4668 6.37891C56.6953 4.77913 56.9265 2.83907 57.4805 0.807617L57.8359 0.814453ZM54.7217 41.5801C53.5599 39.3787 48.9244 35.4903 39.6787 37.5449C44.9985 40.1131 47.2005 42.4973 54.7217 41.5801ZM76.1846 37.5449C71.5985 36.9946 61.8755 37.361 60.958 41.5801C63.7097 41.947 70.6078 41.6541 76.1846 37.5449ZM74.3496 26.5381C69.6411 27.2108 60.1509 31.0142 59.8574 40.8467C60.4689 39.318 63.3068 35.3065 69.0303 32.2246C73.5794 27.969 74.4718 26.6605 74.3496 26.5381ZM41.5127 26.7217C43.1636 28.7395 47.3829 33.3246 49.9512 34.2422C52.0058 34.976 54.5992 38.7062 55.6387 40.4795C56.0055 38.3392 55.2715 33.1046 49.4014 29.2891C44.9987 27.6381 43.8975 26.7217 41.5127 26.7217ZM68.2959 16.4482C66.3391 18.5885 63.5264 23.6028 63.5264 25.0703C61.3844 27.5694 59.2428 32.8475 59.1289 37.5244C59.6272 35.4319 61.7808 30.2296 66.4619 25.9873C68.3697 19.5302 68.4793 16.9374 68.2959 16.4482ZM47.5664 16.6318C47.5664 18.5275 48.0434 23.1996 49.9512 26.7217C53.3266 28.923 55.8832 34.6095 56.7393 37.1777C56.9227 35.9548 56.5921 32.2612 53.8037 27.2715C52.3362 21.4013 49.034 17.7325 47.5664 16.6318ZM57.8398 12.4121C56.3723 14.43 55.4553 22.3181 55.6387 25.8037C56.8127 28.5921 57.8401 33.9371 58.207 36.2607C58.1459 34.4874 58.4267 29.9129 60.041 25.8037C60.041 20.3006 60.2246 18.0988 57.8398 12.4121Z" fill="#FFD11A"/>
<path d="M39.6396 37.3651C48.9503 35.2961 53.6768 39.2067 54.8842 41.4944L55.0086 41.7298L54.7441 41.7621C50.959 42.2237 48.4981 41.8555 46.311 41.0412C45.2213 40.6354 44.2033 40.1203 43.1301 39.5493C42.0548 38.9771 40.9251 38.3494 39.5995 37.7094L39.124 37.4798L39.6396 37.3651ZM67.1643 37.593C70.3037 37.039 73.8993 37.0853 76.2069 37.3622L76.6666 37.4174L76.294 37.6919C70.6675 41.8377 63.7172 42.1331 60.9347 41.7621L60.7376 41.7356L60.7799 41.541C61.0247 40.4152 61.8539 39.5649 62.9909 38.9319C64.1282 38.2988 65.5951 37.8699 67.1643 37.593ZM54.4245 41.4296C53.1339 39.321 48.7454 35.8961 40.2383 37.6138C41.3702 38.1765 42.3643 38.726 43.3028 39.2254C44.3735 39.7951 45.3736 40.3004 46.4393 40.6972C48.5106 41.4684 50.8448 41.8345 54.4245 41.4296ZM75.687 37.6747C73.4085 37.4497 70.1177 37.4442 67.2281 37.9541C65.6787 38.2276 64.2564 38.6471 63.1694 39.2522C62.1556 39.8166 61.4524 40.5312 61.1887 41.4228C63.9677 41.7363 70.3673 41.3871 75.687 37.6747ZM41.5138 26.5375C42.7362 26.5375 43.6308 26.7743 44.7675 27.215C45.3323 27.4341 45.9615 27.7053 46.7184 28.0223C47.2872 28.2606 47.9312 28.5259 48.6808 28.8173L49.4665 29.1176L49.4851 29.1244L49.502 29.1355C55.4363 32.9928 56.1988 38.3013 55.8201 40.5106L55.7352 41.0057L55.4808 40.5722C54.9651 39.6925 54.0628 38.325 53.0354 37.0881C52.5218 36.4698 51.9793 35.8871 51.4407 35.4149C50.9001 34.9411 50.3731 34.5872 49.8907 34.4149C49.2226 34.1763 48.4599 33.7048 47.6722 33.1104C46.8821 32.5142 46.0565 31.7866 45.2623 31.0269C43.6739 29.5076 42.2015 27.8509 41.3719 26.8371L41.1269 26.5375H41.5138ZM74.4803 26.4078C74.5399 26.4674 74.5464 26.5413 74.5441 26.5845C74.5417 26.6291 74.5288 26.6723 74.5147 26.7088C74.4859 26.7831 74.4349 26.874 74.3635 26.9811C74.219 27.1978 73.9699 27.5132 73.5796 27.9528C72.7975 28.8333 71.4324 30.2289 69.1561 32.3583L69.1385 32.3745L69.1177 32.3859C63.4246 35.4515 60.6212 39.4328 60.0286 40.9144L59.6749 40.8409C59.8237 35.8575 62.3063 32.4004 65.3385 30.1104C68.3656 27.8243 71.9461 26.6957 74.3248 26.3559L74.4154 26.343L74.4803 26.4078ZM74.0643 26.7675C71.7403 27.1514 68.3982 28.2593 65.5595 30.4031C62.7796 32.5027 60.4869 35.5906 60.0942 39.9681C61.1904 38.077 63.9982 34.7308 68.9221 32.0742C71.1848 29.9569 72.5362 28.5753 73.3055 27.7091C73.6916 27.2743 73.9276 26.9736 74.0582 26.7776C74.0604 26.7743 74.0622 26.7708 74.0643 26.7675ZM41.913 26.9137C42.7626 27.9261 44.0927 29.4004 45.516 30.7618C46.3039 31.5155 47.118 32.2326 47.8929 32.8173C48.6701 33.4038 49.398 33.8495 50.014 34.0695C50.5589 34.2642 51.1266 34.6517 51.6825 35.139C52.2403 35.628 52.7961 36.2263 53.3174 36.8538C54.1939 37.909 54.9788 39.056 55.518 39.9255C55.6758 37.6043 54.6696 32.9395 49.3174 29.4529C48.2231 29.0422 47.3325 28.6772 46.5765 28.3605C45.8143 28.0412 45.1936 27.7735 44.6349 27.5569C43.6554 27.1771 42.88 26.9597 41.913 26.9137ZM68.4685 16.3835C68.5284 16.5432 68.5534 16.8299 68.5391 17.2431C68.5244 17.6657 68.4672 18.2456 68.3449 19.0087C68.1002 20.5353 67.5937 22.8058 66.6384 26.0391L66.6237 26.0886L66.5857 26.123C61.9497 30.3243 59.8118 35.4736 59.3124 37.5475C59.3095 37.6692 59.3081 37.7904 59.3081 37.9111H58.9412C58.9412 37.7812 58.9426 37.6508 58.9458 37.5199C59.0033 35.157 59.5726 32.6478 60.3955 30.4167C61.2069 28.2166 62.2707 26.2739 63.3457 25.0015C63.365 24.5949 63.5499 24.005 63.8279 23.3344C64.1256 22.6162 64.542 21.7784 65.0182 20.922C65.9691 19.2118 67.1694 17.4095 68.1615 16.3244L68.3635 16.1033L68.4685 16.3835ZM47.6775 16.4846C49.1764 17.6087 52.4959 21.3054 53.9767 27.2032C56.7664 32.2042 57.1123 35.9303 56.9211 37.2046L56.5657 37.2354C56.1412 35.9619 55.2933 33.9094 54.1322 31.9033C52.9686 29.893 51.5031 27.9515 49.852 26.8747L49.8133 26.8492L49.7911 26.8084C47.8627 23.2482 47.3841 18.5417 47.3841 16.6315V16.2646L47.6775 16.4846ZM58.0096 12.3413C59.2062 15.1947 59.7625 17.1831 60.0175 19.1531C60.2717 21.1172 60.2253 23.0593 60.2253 25.8037V25.8385L60.2127 25.8707C58.6102 29.95 58.3303 34.4973 58.3908 36.2537L58.0261 36.2888C57.659 33.9638 56.6343 28.6403 55.47 25.875L55.4575 25.8453L55.4561 25.8134C55.3635 24.0543 55.5482 21.1979 55.939 18.5311C56.1346 17.1967 56.3823 15.905 56.6743 14.8181C56.9644 13.7378 57.304 12.8381 57.6922 12.3044L57.8838 12.041L58.0096 12.3413ZM47.7567 17.0181C47.816 19.0828 48.3412 23.3341 50.0928 26.5941C51.8001 27.7234 53.2865 29.7102 54.4496 31.7199C55.3812 33.3293 56.113 34.9677 56.5915 36.2225C56.5255 34.5451 55.8931 31.3847 53.6445 27.3609L53.6327 27.3394L53.6266 27.3157C52.2633 21.8625 49.3066 18.3314 47.7567 17.0181ZM68.1729 16.8676C67.2612 17.9397 66.1998 19.5515 65.3385 21.1004C64.8669 21.9485 64.4577 22.7733 64.1669 23.4748C63.8723 24.1854 63.7108 24.7435 63.7108 25.07V25.1377L63.6667 25.1893C62.6142 26.4171 61.5525 28.3403 60.7398 30.5439C60.1081 32.2568 59.6309 34.131 59.4231 35.9681C60.3664 33.4182 62.5049 29.3407 66.3005 25.8865C67.2436 22.6888 67.7424 20.4495 67.9827 18.9507C68.1034 18.1974 68.1586 17.6334 68.1726 17.2305C68.1775 17.0872 68.1769 16.967 68.1729 16.8676ZM57.8057 12.8092C57.5281 13.3039 57.2658 14.0303 57.0286 14.9134C56.7416 15.9821 56.4966 17.2587 56.3023 18.5841C55.9158 21.2217 55.7337 24.0346 55.8208 25.7636C56.7442 27.9733 57.5723 31.7271 58.0634 34.3615C58.1994 32.1271 58.6641 28.8254 59.8584 25.7701C59.8588 23.0293 59.9027 21.1266 59.6535 19.2004C59.4136 17.347 58.9004 15.4684 57.8057 12.8092Z" fill="#FFD11A"/>
<path d="M1.91026 69.5742V53.3723H3.9766V60.7923L6.53603 60.6984L10.5043 53.3723H12.8289L8.36755 61.4967L13.0872 69.5742H10.6922L6.55951 62.5299L3.9766 62.6238V69.5742H1.91026ZM26.3837 69.5742V53.3723H36.4101V55.1803H28.4501V60.4636H35.0013V62.2481H28.4501V67.7662H36.4101V69.5742H26.3837ZM50.3986 69.5742V53.3723H54.0617L58.3587 66.5921L62.7027 53.3723H66.3657V69.5742H64.2994V55.6734H63.9472L59.4858 69.0107H57.2786L52.8172 55.6734H52.4649V69.5742H50.3986ZM81.201 69.5742V53.3723H91.2274V55.1803H83.2673V60.4636H89.8185V62.2481H83.2673V67.7662H91.2274V69.5742H81.201ZM108.48 69.5742V55.2038H103.619V53.3723H115.36V55.2038H110.546V69.5742H108.48Z" fill="#201F20"/>
</svg>
