<svg width="212" height="46" viewBox="0 0 212 46" fill="none" xmlns="http://www.w3.org/2000/svg">
<path d="M22.48 5.75098C23.6285 10.7765 23.6085 9.56028 24.6294 12.915C25.1354 14.5779 25.4968 16.3139 25.7827 17.583C25.9268 18.2224 26.0498 18.7348 26.1616 19.0684C26.1894 19.1511 26.2155 19.2175 26.2378 19.2686C26.2577 19.2473 26.2815 19.2241 26.3062 19.1963C26.4044 19.0856 26.5259 18.9397 26.6655 18.7666C26.9547 18.408 27.2794 17.9897 27.6597 17.5166C28.0285 17.0577 28.4234 16.5817 28.7993 16.1738C29.1711 15.7705 29.5402 15.4165 29.8579 15.2178C30.3906 14.8848 30.9412 14.2708 31.5327 13.5C31.8261 13.1177 32.1255 12.7033 32.4331 12.2744C32.7399 11.8466 33.0554 11.4041 33.3804 10.9707L33.8315 10.3701V11.1211C33.8315 11.559 33.7951 13.6493 33.561 16.2246C33.3402 18.6545 32.9404 21.5334 32.2231 23.8662C40.9125 22.2252 38.0982 22.3726 41.6987 21.3643L42.6196 21.1074L41.9438 21.7832C40.9528 22.7744 39.3183 24.9777 37.6196 27.1465C36.7753 28.2245 35.9184 29.2889 35.1274 30.1748C34.5447 30.8276 33.9872 31.3935 33.4907 31.7979C35.0915 32.0205 37.0757 31.9449 38.9751 31.7412C41.1055 31.5127 43.1062 31.1267 44.2935 30.8418L45.1558 30.6348L44.5288 31.2627C42.8948 32.8969 38.6683 36.6354 34.8394 38.4922C32.9014 39.4319 30.3863 39.8652 28.0483 40.0312C25.7249 40.1962 23.5499 40.0984 22.2397 39.9551C21.3976 40.1035 18.8544 40.292 14.8901 39.9521C12.3173 39.7315 9.43933 38.4138 6.80615 36.7363C4.1681 35.0556 1.74718 32.996 0.0825195 31.2588L0.399902 30.875C1.07691 31.3151 1.9725 31.5952 2.98975 31.7607C4.00451 31.9258 5.12446 31.9747 6.23877 31.9658C7.35256 31.9569 8.45509 31.8902 9.43506 31.8252C10.1123 31.7802 10.7371 31.7368 11.2632 31.7139C10.967 31.4245 10.5952 31.0348 10.1782 30.5762C9.47759 29.8056 8.62652 28.8243 7.73682 27.7637C5.9578 25.643 4.0139 23.1944 2.7876 21.4629L2.25635 20.7129L3.09424 21.0898C4.51829 21.7307 7.12947 22.6968 9.33057 23.377C10.4321 23.7173 11.4206 23.9832 12.1021 24.1016C12.4041 24.154 12.6254 24.1713 12.7642 24.1641C12.2844 22.9239 11.2144 18.6142 11.2144 11.1211V10.2686L11.6753 10.9854C12.9763 13.0093 13.2419 13.3309 13.4585 13.5166C13.5582 13.6021 13.7082 13.7026 13.9419 13.9316C14.1812 14.1663 14.5301 14.5523 15.1069 15.2734C16.2498 16.7022 17.2128 17.7358 17.9048 18.4102C18.2508 18.7474 18.5283 18.9942 18.7251 19.1543C18.7468 19.1719 18.7691 19.1868 18.7886 19.2021C18.8182 19.0649 18.855 18.8877 18.895 18.6777C18.9954 18.1512 19.1269 17.4286 19.2798 16.6729C19.4328 15.9168 19.6089 15.119 19.8022 14.4365C19.9919 13.7673 20.2086 13.1673 20.4556 12.8379C20.6414 12.5901 20.7837 12.2329 20.9019 11.7646C21.0194 11.2986 21.108 10.7445 21.1978 10.1162C21.3762 8.8668 21.5578 7.33963 21.9937 5.74121L22.48 5.75098ZM19.939 37.6924C19.0293 35.9688 15.4004 32.9246 8.1626 34.5332C12.3271 36.544 14.051 38.4105 19.939 37.6924ZM36.7407 34.5332C33.1505 34.1024 25.5392 34.3892 24.8208 37.6924C26.9749 37.9796 32.375 37.7503 36.7407 34.5332ZM35.3052 25.915C31.6192 26.4417 24.1893 29.4197 23.9595 37.1182C24.4382 35.9213 26.6596 32.7811 31.1401 30.3682C34.7006 27.037 35.4004 26.0113 35.3052 25.915ZM9.59814 26.0586C10.8906 27.6385 14.194 31.229 16.2046 31.9473C17.813 32.5218 19.843 35.4426 20.6567 36.8311C20.944 35.1554 20.3695 31.0568 15.7739 28.0693C12.3273 26.7767 11.4651 26.0586 9.59814 26.0586ZM30.5659 18.0156C29.0341 19.6913 26.8315 23.6176 26.8315 24.7666C25.1547 26.7234 23.4783 30.856 23.3892 34.5176C23.7792 32.8793 25.4648 28.8059 29.1294 25.4844C30.6229 20.4289 30.7095 18.3988 30.5659 18.0156ZM14.3374 18.1592C14.3374 19.6433 14.7111 23.3009 16.2046 26.0586C18.847 27.7821 20.8479 32.2353 21.5181 34.2461C21.6617 33.2886 21.4031 30.396 19.2202 26.4893C18.0713 21.8934 15.4863 19.0209 14.3374 18.1592ZM22.3794 14.8555C21.2305 16.4354 20.5131 22.6119 20.6567 25.3408C21.5758 27.524 22.3802 31.708 22.6675 33.5273C22.6196 32.1388 22.8394 28.5579 24.103 25.3408C24.103 21.032 24.2463 19.308 22.3794 14.8555Z" fill="#FFD11A"/>
<path d="M8.13116 34.391C15.4201 32.771 19.1202 35.8328 20.0654 37.624L20.1627 37.8083L19.9557 37.8335C16.9925 38.195 15.066 37.9067 13.3539 37.2691C12.5008 36.9515 11.7039 36.5481 10.8637 36.101C10.0219 35.653 9.13751 35.1616 8.09975 34.6605L7.72754 34.4807L8.13116 34.391ZM29.6789 34.5694C32.1365 34.1356 34.9514 34.1719 36.7579 34.3887L37.1178 34.4319L36.8261 34.6468C32.4214 37.8927 26.9804 38.124 24.802 37.8335L24.6478 37.8128L24.6809 37.6605C24.8725 36.779 25.5216 36.1133 26.4118 35.6177C27.302 35.122 28.4505 34.7862 29.6789 34.5694ZM19.7056 37.5732C18.6952 35.9223 15.2597 33.2408 8.59986 34.5856C9.48598 35.0262 10.2642 35.4565 10.9989 35.8474C11.8371 36.2935 12.62 36.6891 13.4543 36.9998C15.0758 37.6037 16.9032 37.8903 19.7056 37.5732ZM36.3509 34.6333C34.5671 34.4572 31.991 34.4529 29.7288 34.8521C28.5159 35.0662 27.4024 35.3947 26.5515 35.8685C25.7578 36.3104 25.2073 36.8698 25.0009 37.5679C27.1764 37.8133 32.1863 37.54 36.3509 34.6333ZM9.5984 25.9135C10.5553 25.9135 11.2556 26.0989 12.1455 26.444C12.5877 26.6155 13.0803 26.8278 13.6728 27.076C14.1181 27.2625 14.6223 27.4703 15.209 27.6985L15.8241 27.9336L15.8387 27.9389L15.8519 27.9476C20.4976 30.9677 21.0945 35.124 20.7981 36.8537L20.7316 37.2414L20.5324 36.9019C20.1287 36.2131 19.4224 35.1425 18.6181 34.1741C18.216 33.69 17.7913 33.2337 17.3696 32.8641C16.9465 32.4931 16.5339 32.216 16.1562 32.0811C15.6332 31.8943 15.0361 31.5251 14.4195 31.0597C13.8009 30.5929 13.1546 30.0233 12.5329 29.4285C11.2894 28.2389 10.1367 26.9418 9.48733 26.148L9.29547 25.9135H9.5984ZM35.4062 25.8119C35.4528 25.8586 35.4579 25.9164 35.4561 25.9502C35.4543 25.9852 35.4442 26.019 35.4331 26.0476C35.4106 26.1058 35.3707 26.1769 35.3148 26.2608C35.2017 26.4305 35.0067 26.6774 34.7011 27.0216C34.0888 27.711 33.0202 28.8036 31.2381 30.4709L31.2244 30.4835L31.2081 30.4925C26.7513 32.8927 24.5566 36.0099 24.0927 37.1698L23.8158 37.1123C23.9323 33.2106 25.8758 30.5038 28.2495 28.7109C30.6193 26.921 33.4223 26.0373 35.2845 25.7713L35.3554 25.7612L35.4062 25.8119ZM35.0806 26.0936C33.2612 26.3941 30.6448 27.2616 28.4226 28.9401C26.2463 30.5839 24.4514 33.0016 24.144 36.429C25.0022 34.9484 27.2003 32.3285 31.055 30.2484C32.8264 28.5907 33.8843 27.509 34.4865 26.8308C34.7888 26.4904 34.9735 26.2549 35.0758 26.1015C35.0775 26.0989 35.0789 26.0961 35.0806 26.0936ZM9.91087 26.2081C10.576 27.0007 11.6173 28.155 12.7315 29.2209C13.3483 29.811 13.9856 30.3724 14.5922 30.8303C15.2007 31.2894 15.7705 31.6384 16.2527 31.8107C16.6793 31.9631 17.1238 32.2665 17.559 32.6481C17.9956 33.0309 18.4308 33.4993 18.8388 33.9906C19.525 34.8168 20.1395 35.7148 20.5616 36.3956C20.6851 34.5782 19.8974 30.9259 15.7075 28.1961C14.8507 27.8745 14.1536 27.5888 13.5617 27.3408C12.965 27.0908 12.4791 26.8812 12.0417 26.7116C11.2749 26.4142 10.6679 26.2441 9.91087 26.2081ZM30.6999 17.9634C30.7468 18.0885 30.7664 18.3129 30.7551 18.6364C30.7437 18.9673 30.6989 19.4214 30.6031 20.0188C30.4116 21.2141 30.015 22.9917 29.2671 25.5233L29.2556 25.562L29.2259 25.5889C25.5966 28.8784 23.923 32.91 23.532 34.5337C23.5298 34.629 23.5286 34.7239 23.5286 34.8185H23.2414C23.2414 34.7167 23.2426 34.6146 23.245 34.5121C23.2901 32.6621 23.7358 30.6975 24.3799 28.9507C25.0152 27.2281 25.8479 25.7071 26.6895 24.7109C26.7046 24.3926 26.8494 23.9306 27.067 23.4056C27.3001 22.8433 27.626 22.1873 27.9988 21.5168C28.7432 20.1778 29.6829 18.7667 30.4595 17.9171L30.6177 17.7441L30.6999 17.9634ZM14.4237 18.0425C15.5971 18.9227 18.1957 21.817 19.3549 26.4347C21.5389 30.3502 21.8096 33.2675 21.66 34.2653L21.3818 34.2894C21.0494 33.2923 20.3857 31.6853 19.4767 30.1146C18.5658 28.5407 17.4185 27.0206 16.1259 26.1775L16.0957 26.1576L16.0783 26.1256C14.5686 23.3382 14.1939 19.6532 14.1939 18.1576V17.8703L14.4237 18.0425ZM22.5121 14.7986C23.4489 17.0327 23.8844 18.5894 24.084 20.1319C24.283 21.6697 24.2467 23.1902 24.2467 25.339V25.3662L24.2369 25.3914C22.9823 28.5853 22.7632 32.1456 22.8106 33.5208L22.525 33.5483C22.2376 31.7279 21.4355 27.5598 20.524 25.3948L20.5142 25.3715L20.5131 25.3466C20.4406 23.9693 20.5852 21.7328 20.8912 19.6449C21.0443 18.6001 21.2382 17.5887 21.4667 16.7378C21.6939 15.892 21.9597 15.1875 22.2636 14.7697L22.4137 14.5635L22.5121 14.7986ZM14.4856 18.4602C14.532 20.0768 14.9432 23.4054 16.3144 25.9578C17.651 26.842 18.8146 28.3976 19.7252 29.971C20.4544 31.2312 21.0274 32.5139 21.4019 33.4964C21.3503 32.183 20.8552 29.7086 19.0949 26.5581L19.0857 26.5413L19.0809 26.5228C18.0136 22.2532 15.699 19.4885 14.4856 18.4602ZM30.4685 18.3424C29.7548 19.1819 28.9238 20.4438 28.2495 21.6565C27.8803 22.3206 27.56 22.9663 27.3323 23.5156C27.1017 24.0719 26.9753 24.5089 26.9753 24.7645V24.8175L26.9408 24.8579C26.1169 25.8192 25.2857 27.325 24.6495 29.0503C24.1549 30.3914 23.7814 31.8588 23.6187 33.2972C24.3571 31.3007 26.0313 28.1082 29.0026 25.4038C29.741 22.9001 30.1315 21.1469 30.3195 19.9734C30.4141 19.3836 30.4572 18.942 30.4682 18.6266C30.4721 18.5144 30.4716 18.4202 30.4685 18.3424ZM22.3525 15.1649C22.1352 15.5522 21.9299 16.121 21.7441 16.8124C21.5194 17.6491 21.3277 18.6486 21.1756 19.6864C20.873 21.7515 20.7304 23.9538 20.7986 25.3076C21.5215 27.0376 22.1698 29.9767 22.5542 32.0393C22.6607 30.2898 23.0245 27.7048 23.9594 25.3126C23.9597 23.1667 23.9942 21.6771 23.799 20.1689C23.6112 18.7178 23.2094 17.247 22.3525 15.1649Z" fill="#FFD11A"/>
<path d="M55.7639 34.4424V12.3292H58.5841V22.4564L62.0773 22.3282L67.4935 12.3292H70.6662L64.5771 23.4178L71.0187 34.4424H67.7498L62.1094 24.828L58.5841 24.9562V34.4424H55.7639ZM89.1665 34.4424V12.3292H102.851V14.7969H91.9867V22.0077H100.928V24.4434H91.9867V31.9747H102.851V34.4424H89.1665ZM121.943 34.4424V12.3292H126.943L132.807 30.3723L138.736 12.3292H143.736V34.4424H140.916V15.4699H140.435L134.346 33.6732H131.333L125.244 15.4699H124.763V34.4424H121.943ZM163.984 34.4424V12.3292H177.668V14.7969H166.804V22.0077H175.745V24.4434H166.804V31.9747H177.668V34.4424H163.984ZM201.215 34.4424V14.829H194.581V12.3292H210.605V14.829H204.035V34.4424H201.215Z" fill="#201F20"/>
</svg>
