<svg width="58" height="45" viewBox="0 0 58 45" fill="none" xmlns="http://www.w3.org/2000/svg">
<path d="M28.8359 0.814453C30.3033 7.23423 30.2883 5.71739 31.584 9.97461C32.2285 12.0924 32.6897 14.3028 33.0557 15.9268C33.2395 16.7425 33.3975 17.4041 33.543 17.8379C33.6168 18.0581 33.6821 18.2007 33.7354 18.2754C33.7859 18.231 33.8616 18.1575 33.959 18.0479C34.0867 17.904 34.2433 17.7155 34.4219 17.4941C34.7865 17.042 35.2124 16.4933 35.6914 15.8975C36.1621 15.312 36.6645 14.706 37.1416 14.1885C37.6155 13.6745 38.0767 13.2345 38.4658 12.9912C39.1689 12.5517 39.8857 11.7496 40.6416 10.7646C41.0178 10.2744 41.4002 9.74287 41.793 9.19531C42.1852 8.64851 42.5888 8.08534 43.0029 7.5332L43.333 7.09277V7.64258C43.333 8.19775 43.2869 10.8643 42.9883 14.1494C42.6994 17.3268 42.1705 21.0965 41.2158 24.0986C52.5894 21.9575 48.9618 22.144 53.5566 20.8574L54.2305 20.6689L53.7354 21.1641C52.4618 22.4376 50.3648 25.2643 48.2012 28.0264C47.123 29.4027 46.0307 30.7605 45.0234 31.8887C44.1784 32.8351 43.3816 33.6289 42.6992 34.1396C44.814 34.4838 47.5001 34.3892 50.0547 34.1152C52.7825 33.8226 55.3436 33.3291 56.8652 32.9639L57.4971 32.8115L57.0371 33.2715C54.9535 35.3551 49.5678 40.1178 44.6973 42.4795C42.2449 43.6685 39.0525 44.221 36.0723 44.4326C33.1035 44.6434 30.3254 44.5161 28.6611 44.333C27.6268 44.5201 24.3805 44.7678 19.2852 44.3311C16.0313 44.052 12.3782 42.3823 9.02148 40.2441C5.66091 38.1035 2.57634 35.48 0.457031 33.2686L0.689453 32.9883C1.57665 33.5649 2.74198 33.9257 4.05078 34.1387C5.35774 34.3512 6.79709 34.4147 8.22461 34.4033C9.65175 34.3919 11.0634 34.3057 12.3154 34.2227C13.3255 34.1556 14.2376 34.092 14.9658 34.0693C14.5642 33.6971 14.0072 33.1161 13.3555 32.3994C12.462 31.4168 11.3762 30.1655 10.2402 28.8115C7.96875 26.1041 5.48922 22.9806 3.92578 20.7734L3.53613 20.2236L4.15039 20.5C5.97613 21.3216 9.31655 22.558 12.1318 23.4277C13.5403 23.8629 14.8101 24.2038 15.6895 24.3564C16.1339 24.4336 16.4594 24.4589 16.6494 24.4336C16.6999 24.4268 16.7307 24.417 16.748 24.4102V24.4092C16.1839 23.0927 14.7148 17.5605 14.7148 7.64258V7.01855L15.0527 7.54395C16.7099 10.1217 17.0609 10.5523 17.3564 10.8057C17.498 10.9269 17.6718 11.0399 17.9678 11.3301C18.2678 11.6242 18.709 12.1121 19.4443 13.0312C20.9075 14.8603 22.1409 16.1852 23.0293 17.0508C23.4735 17.4836 23.8305 17.8011 24.0859 18.0088C24.1879 18.0917 24.2734 18.1552 24.3398 18.2021C24.3459 18.178 24.3546 18.1512 24.3613 18.1221C24.4052 17.9326 24.46 17.6574 24.5244 17.3193C24.653 16.6452 24.8195 15.7248 25.0146 14.7607C25.2098 13.7963 25.4342 12.7816 25.6797 11.915C25.9224 11.0583 26.194 10.3158 26.4922 9.91797C26.7456 9.57994 26.9334 9.10262 27.0859 8.49805C27.2381 7.8951 27.3522 7.18136 27.4668 6.37891C27.6953 4.77913 27.9265 2.83907 28.4805 0.807617L28.8359 0.814453ZM25.7217 41.5801C24.5599 39.3787 19.9244 35.4903 10.6787 37.5449C15.9985 40.1131 18.2005 42.4973 25.7217 41.5801ZM47.1846 37.5449C42.5985 36.9946 32.8755 37.361 31.958 41.5801C34.7097 41.947 41.6078 41.6541 47.1846 37.5449ZM45.3496 26.5381C40.6411 27.2108 31.1509 31.0142 30.8574 40.8467C31.4689 39.318 34.3068 35.3065 40.0303 32.2246C44.5794 27.969 45.4718 26.6605 45.3496 26.5381ZM12.5127 26.7217C14.1636 28.7395 18.3829 33.3246 20.9512 34.2422C23.0058 34.976 25.5992 38.7062 26.6387 40.4795C27.0055 38.3392 26.2715 33.1046 20.4014 29.2891C15.9987 27.6381 14.8975 26.7217 12.5127 26.7217ZM39.2959 16.4482C37.3391 18.5885 34.5264 23.6028 34.5264 25.0703C32.3844 27.5694 30.2428 32.8475 30.1289 37.5244C30.6272 35.4319 32.7808 30.2296 37.4619 25.9873C39.3697 19.5302 39.4793 16.9374 39.2959 16.4482ZM18.5664 16.6318C18.5664 18.5275 19.0434 23.1996 20.9512 26.7217C24.3266 28.923 26.8832 34.6095 27.7393 37.1777C27.9227 35.9548 27.5921 32.2612 24.8037 27.2715C23.3362 21.4013 20.034 17.7325 18.5664 16.6318ZM28.8398 12.4121C27.3723 14.43 26.4553 22.3181 26.6387 25.8037C27.8127 28.5921 28.8401 33.9371 29.207 36.2607C29.1459 34.4874 29.4267 29.9129 31.041 25.8037C31.041 20.3006 31.2246 18.0988 28.8398 12.4121Z" fill="#FFD11A"/>
<path d="M10.6396 37.3651C19.9503 35.2961 24.6768 39.2067 25.8842 41.4944L26.0086 41.7298L25.7441 41.7621C21.959 42.2237 19.4981 41.8555 17.311 41.0412C16.2213 40.6354 15.2033 40.1203 14.1301 39.5493C13.0548 38.9771 11.9251 38.3494 10.5995 37.7094L10.124 37.4798L10.6396 37.3651ZM38.1643 37.593C41.3037 37.039 44.8993 37.0853 47.2069 37.3622L47.6666 37.4174L47.294 37.6919C41.6675 41.8377 34.7172 42.1331 31.9347 41.7621L31.7376 41.7356L31.7799 41.541C32.0247 40.4152 32.8539 39.5649 33.9909 38.9319C35.1282 38.2988 36.5951 37.8699 38.1643 37.593ZM25.4245 41.4296C24.1339 39.321 19.7454 35.8961 11.2383 37.6138C12.3702 38.1765 13.3643 38.726 14.3028 39.2254C15.3735 39.7951 16.3736 40.3004 17.4393 40.6972C19.5106 41.4684 21.8448 41.8345 25.4245 41.4296ZM46.687 37.6747C44.4085 37.4497 41.1177 37.4442 38.2281 37.9541C36.6787 38.2276 35.2564 38.6471 34.1694 39.2522C33.1556 39.8166 32.4524 40.5312 32.1887 41.4228C34.9677 41.7363 41.3673 41.3871 46.687 37.6747ZM12.5138 26.5375C13.7362 26.5375 14.6308 26.7743 15.7675 27.215C16.3323 27.4341 16.9615 27.7053 17.7184 28.0223C18.2872 28.2606 18.9312 28.5259 19.6808 28.8173L20.4665 29.1176L20.4851 29.1244L20.502 29.1355C26.4363 32.9928 27.1988 38.3013 26.8201 40.5106L26.7352 41.0057L26.4808 40.5722C25.9651 39.6925 25.0628 38.325 24.0354 37.0881C23.5218 36.4698 22.9793 35.8871 22.4407 35.4149C21.9001 34.9411 21.3731 34.5872 20.8907 34.4149C20.2226 34.1763 19.4599 33.7048 18.6722 33.1104C17.8821 32.5142 17.0565 31.7866 16.2623 31.0269C14.6739 29.5076 13.2015 27.8509 12.3719 26.8371L12.1269 26.5375H12.5138ZM45.4803 26.4078C45.5399 26.4674 45.5464 26.5413 45.5441 26.5845C45.5417 26.6291 45.5288 26.6723 45.5147 26.7088C45.4859 26.7831 45.4349 26.874 45.3635 26.9811C45.219 27.1978 44.9699 27.5132 44.5796 27.9528C43.7975 28.8333 42.4324 30.2289 40.1561 32.3583L40.1385 32.3745L40.1177 32.3859C34.4246 35.4515 31.6212 39.4328 31.0286 40.9144L30.6749 40.8409C30.8237 35.8575 33.3063 32.4004 36.3385 30.1104C39.3656 27.8243 42.9461 26.6957 45.3248 26.3559L45.4154 26.343L45.4803 26.4078ZM45.0643 26.7675C42.7403 27.1514 39.3982 28.2593 36.5595 30.4031C33.7796 32.5027 31.4869 35.5906 31.0942 39.9681C32.1904 38.077 34.9982 34.7308 39.9221 32.0742C42.1848 29.9569 43.5362 28.5753 44.3055 27.7091C44.6916 27.2743 44.9276 26.9736 45.0582 26.7776C45.0604 26.7743 45.0622 26.7708 45.0643 26.7675ZM12.913 26.9137C13.7626 27.9261 15.0927 29.4004 16.516 30.7618C17.3039 31.5155 18.118 32.2326 18.8929 32.8173C19.6701 33.4038 20.398 33.8495 21.014 34.0695C21.5589 34.2642 22.1266 34.6517 22.6825 35.139C23.2403 35.628 23.7961 36.2263 24.3174 36.8538C25.1939 37.909 25.9788 39.056 26.518 39.9255C26.6758 37.6043 25.6696 32.9395 20.3174 29.4529C19.2231 29.0422 18.3325 28.6772 17.5765 28.3605C16.8143 28.0412 16.1936 27.7735 15.6349 27.5569C14.6554 27.1771 13.88 26.9597 12.913 26.9137ZM39.4685 16.3835C39.5284 16.5432 39.5534 16.8299 39.5391 17.2431C39.5244 17.6657 39.4672 18.2456 39.3449 19.0087C39.1002 20.5353 38.5937 22.8058 37.6384 26.0391L37.6237 26.0886L37.5857 26.123C32.9497 30.3243 30.8118 35.4736 30.3124 37.5475C30.3095 37.6692 30.3081 37.7904 30.3081 37.9111H29.9412C29.9412 37.7812 29.9426 37.6508 29.9458 37.5199C30.0033 35.157 30.5726 32.6478 31.3955 30.4167C32.2069 28.2166 33.2707 26.2739 34.3457 25.0015C34.365 24.5949 34.5499 24.005 34.8279 23.3344C35.1256 22.6162 35.542 21.7784 36.0182 20.922C36.9691 19.2118 38.1694 17.4095 39.1615 16.3244L39.3635 16.1033L39.4685 16.3835ZM18.6775 16.4846C20.1764 17.6087 23.4959 21.3054 24.9767 27.2032C27.7664 32.2042 28.1123 35.9303 27.9211 37.2046L27.5657 37.2354C27.1412 35.9619 26.2933 33.9094 25.1322 31.9033C23.9686 29.893 22.5031 27.9515 20.852 26.8747L20.8133 26.8492L20.7911 26.8084C18.8627 23.2482 18.3841 18.5417 18.3841 16.6315V16.2646L18.6775 16.4846ZM29.0096 12.3413C30.2062 15.1947 30.7625 17.1831 31.0175 19.1531C31.2717 21.1172 31.2253 23.0593 31.2253 25.8037V25.8385L31.2127 25.8707C29.6102 29.95 29.3303 34.4973 29.3908 36.2537L29.0261 36.2888C28.659 33.9638 27.6343 28.6403 26.47 25.875L26.4575 25.8453L26.4561 25.8134C26.3635 24.0543 26.5482 21.1979 26.939 18.5311C27.1346 17.1967 27.3823 15.905 27.6743 14.8181C27.9644 13.7378 28.304 12.8381 28.6922 12.3044L28.8838 12.041L29.0096 12.3413ZM18.7567 17.0181C18.816 19.0828 19.3412 23.3341 21.0928 26.5941C22.8001 27.7234 24.2865 29.7102 25.4496 31.7199C26.3812 33.3293 27.113 34.9677 27.5915 36.2225C27.5255 34.5451 26.8931 31.3847 24.6445 27.3609L24.6327 27.3394L24.6266 27.3157C23.2633 21.8625 20.3066 18.3314 18.7567 17.0181ZM39.1729 16.8676C38.2612 17.9397 37.1998 19.5515 36.3385 21.1004C35.8669 21.9485 35.4577 22.7733 35.1669 23.4748C34.8723 24.1854 34.7108 24.7435 34.7108 25.07V25.1377L34.6667 25.1893C33.6142 26.4171 32.5525 28.3403 31.7398 30.5439C31.1081 32.2568 30.6309 34.131 30.4231 35.9681C31.3664 33.4182 33.5049 29.3407 37.3005 25.8865C38.2436 22.6888 38.7424 20.4495 38.9827 18.9507C39.1034 18.1974 39.1586 17.6334 39.1726 17.2305C39.1775 17.0872 39.1769 16.967 39.1729 16.8676ZM28.8057 12.8092C28.5281 13.3039 28.2658 14.0303 28.0286 14.9134C27.7416 15.9821 27.4966 17.2587 27.3023 18.5841C26.9158 21.2217 26.7337 24.0346 26.8208 25.7636C27.7442 27.9733 28.5723 31.7271 29.0634 34.3615C29.1994 32.1271 29.6641 28.8254 30.8584 25.7701C30.8588 23.0293 30.9027 21.1266 30.6535 19.2004C30.4136 17.347 29.9004 15.4684 28.8057 12.8092Z" fill="#FFD11A"/>
</svg>
