<svg width="21" height="21" viewBox="0 0 21 21" fill="none" xmlns="http://www.w3.org/2000/svg">
<path d="M18.4157 5.18214C17.7893 5.45378 17.1269 5.63341 16.449 5.71547C17.1642 5.28824 17.7001 4.61613 17.9574 3.82381C17.2854 4.22401 16.5497 4.50588 15.7824 4.65714C15.2695 4.10095 14.5865 3.73072 13.8405 3.60452C13.0946 3.47831 12.3278 3.60327 11.6605 3.9598C10.9932 4.31632 10.4631 4.88425 10.1534 5.5745C9.84365 6.26476 9.77177 7.0383 9.94902 7.77381C8.59021 7.70508 7.26106 7.35127 6.0479 6.73536C4.83475 6.11945 3.76473 5.25522 2.90736 4.19881C2.60664 4.72395 2.44862 5.31866 2.44902 5.92381C2.44796 6.48579 2.58587 7.03932 2.85049 7.53511C3.1151 8.0309 3.49821 8.45357 3.96569 8.76547C3.42234 8.75069 2.89059 8.60489 2.41569 8.34047V8.38214C2.41976 9.16955 2.69569 9.93139 3.19679 10.5388C3.69789 11.1462 4.3934 11.5618 5.16569 11.7155C4.86823 11.8052 4.55969 11.8529 4.24902 11.8571C4.03395 11.8543 3.81942 11.8348 3.60736 11.7988C3.82728 12.4762 4.25288 13.0681 4.82492 13.4923C5.39696 13.9165 6.087 14.1518 6.79902 14.1655C5.59669 15.1115 4.11226 15.6279 2.58236 15.6321C2.30381 15.6329 2.02548 15.6162 1.74902 15.5821C3.31105 16.5907 5.13137 17.1261 6.99069 17.1238C8.27377 17.1371 9.54664 16.8947 10.735 16.4105C11.9233 15.9264 13.0032 15.2104 13.9117 14.3042C14.8202 13.3981 15.539 12.32 16.0262 11.1329C16.5133 9.94583 16.7591 8.67358 16.749 7.39047V6.94881C17.4033 6.46153 17.9673 5.86365 18.4157 5.18214Z" fill="#922227"/>
</svg>
