<svg width="81" height="81" viewBox="0 0 81 81" fill="none" xmlns="http://www.w3.org/2000/svg">
<rect x="0.0825195" y="0.349609" width="80" height="80" rx="40" fill="#E7F1EC"/>
<path fill-rule="evenodd" clip-rule="evenodd" d="M32.2075 23.7246C31.5113 23.7246 30.8436 24.0012 30.3514 24.4935C29.8591 24.9857 29.5825 25.6534 29.5825 26.3496V54.3496C29.5825 55.0458 29.8591 55.7135 30.3514 56.2058C30.8436 56.698 31.5113 56.9746 32.2075 56.9746H47.9575C48.6537 56.9746 49.3214 56.698 49.8137 56.2058C50.306 55.7135 50.5825 55.0458 50.5825 54.3496V26.3496C50.5825 25.6534 50.306 24.9857 49.8137 24.4935C49.3214 24.0012 48.6537 23.7246 47.9575 23.7246H32.2075ZM31.3325 26.3496C31.3325 26.1175 31.4247 25.895 31.5888 25.7309C31.7529 25.5668 31.9755 25.4746 32.2075 25.4746H34.8325V27.2246C34.8325 27.4567 34.9247 27.6792 35.0888 27.8433C35.2529 28.0074 35.4755 28.0996 35.7075 28.0996H44.4575C44.6896 28.0996 44.9121 28.0074 45.0762 27.8433C45.2403 27.6792 45.3325 27.4567 45.3325 27.2246V25.4746H47.9575C48.1896 25.4746 48.4121 25.5668 48.5762 25.7309C48.7403 25.895 48.8325 26.1175 48.8325 26.3496V54.3496C48.8325 54.5817 48.7403 54.8042 48.5762 54.9683C48.4121 55.1324 48.1896 55.2246 47.9575 55.2246H32.2075C31.9755 55.2246 31.7529 55.1324 31.5888 54.9683C31.4247 54.8042 31.3325 54.5817 31.3325 54.3496V26.3496Z" fill="#81B29A"/>
</svg>
