<svg width="81" height="81" viewBox="0 0 81 81" fill="none" xmlns="http://www.w3.org/2000/svg">
<rect x="0.749512" y="0.349609" width="80" height="80" rx="40" fill="#FBF0DD"/>
<path d="M40.7497 25.7666C38.0422 25.7666 35.4457 26.8421 33.5313 28.7566C31.6168 30.671 30.5413 33.2675 30.5413 35.9749V41.1199C30.5415 41.3462 30.4891 41.5693 30.3882 41.7718L27.8842 46.7783C27.7619 47.0229 27.7042 47.2947 27.7165 47.5679C27.7288 47.841 27.8107 48.1066 27.9545 48.3392C28.0982 48.5718 28.2991 48.7638 28.538 48.897C28.7768 49.0301 29.0458 49.1 29.3192 49.0999H52.1801C52.4536 49.1 52.7225 49.0301 52.9614 48.897C53.2002 48.7638 53.4011 48.5718 53.5449 48.3392C53.6887 48.1066 53.7706 47.841 53.7829 47.5679C53.7952 47.2947 53.7374 47.0229 53.6151 46.7783L51.1126 41.7718C51.0112 41.5695 50.9582 41.3463 50.958 41.1199V35.9749C50.958 33.2675 49.8825 30.671 47.968 28.7566C46.0536 26.8421 43.4571 25.7666 40.7497 25.7666ZM40.7497 53.4749C39.8445 53.4754 38.9616 53.1951 38.2224 52.6728C37.4832 52.1504 36.9243 51.4116 36.6226 50.5583H44.8767C44.575 51.4116 44.0161 52.1504 43.2769 52.6728C42.5378 53.1951 41.6548 53.4754 40.7497 53.4749Z" fill="#F2CC8F"/>
</svg>
